<svg width="424" height="252" viewBox="0 0 424 252" fill="none" xmlns="http://www.w3.org/2000/svg">
<path d="M0.320173 30.1744H19.8507C23.0951 34.7849 26.2542 40.0997 29.3278 46.119H28.6235C30.758 48.1681 32.7217 50.8789 34.5147 54.2514V54.8917L33.8743 55.9163C34.7281 56.0017 35.155 56.3218 35.155 56.8768L34.8348 57.197C36.7986 57.4104 37.7804 58.499 37.7804 60.4627L37.1401 61.1031H33.5541V61.7434H31.2489V62.3838H29.3278L25.4217 63.4083V63.0882L22.7963 63.7285L22.156 63.0882H21.1955C21.1955 63.7285 20.9607 64.0487 20.4911 64.0487H20.1709L17.6095 59.5022V59.1821H18.2499C18.2499 59.8224 18.8902 60.1426 20.1709 60.1426L21.5156 59.5022L22.156 60.1426L23.7568 59.8224V59.1821C22.6042 59.1821 21.6224 58.6271 20.8112 57.5172L19.2104 57.197V56.5566H18.2499V57.197H16.9051C16.2648 57.197 15.9446 56.5566 15.9446 55.2759C15.0054 55.2759 13.3832 52.992 11.078 48.4242C4.54646 38.0079 0.960519 31.9247 0.320173 30.1744ZM85.8064 121.936L85.4862 121.616L85.8064 112.843V100.1C86.8736 98.8195 88.0689 98.1791 89.3923 98.1791L88.752 97.2186V95.5537L86.1265 94.9134V91.9678L86.7669 91.3274L86.1265 90.3669V81.21L86.4467 71.4767C86.4467 69.9399 89.499 64.4115 95.6037 54.8917L95.9238 55.2119L96.5642 54.5716H95.9238L105.657 37.2822H106.361V92.9923C106.361 93.4192 105.913 93.6327 105.017 93.6327V93.9528C105.913 93.9528 106.361 94.1663 106.361 94.5932V117.71C106.361 118.137 105.807 118.35 104.697 118.35V118.99H106.361V121.296L105.657 121.936H94.9633L92.6581 121.616L91.3774 121.936H88.4318L88.1116 121.616L87.7914 121.936H85.8064ZM99.1896 119.695V118.99L98.5493 118.35V119.695H99.1896ZM13.3192 34.4007V34.7208L14.0236 35.3612V35.041L13.3192 34.4007ZM94.9633 117.069H93.9388V117.39L94.2589 117.71L94.9633 117.069ZM0 36.5138H0.640346L11.7183 55.404C11.2914 55.404 11.078 55.7242 11.078 56.3645C9.7546 56.3645 9.09291 57.1116 9.09291 58.6057L6.21136 58.2856V58.6057C6.21136 59.118 5.01604 59.673 2.62542 60.2706L1.98507 60.911H1.60087L0.320173 59.3101H0V36.5138ZM100.79 114.444H101.431L100.15 113.483H99.5098V113.804L100.79 114.444ZM95.9238 113.163V112.523H94.2589V113.163H95.9238ZM92.6581 111.498L91.6976 110.538L91.3774 111.498V111.818L92.6581 111.498ZM102.071 105.991L104.056 105.031V104.711H103.096C102.669 104.711 102.455 105.031 102.455 105.671H101.751V105.991H102.071ZM96.5642 103.366V102.085L95.9238 102.726L96.5642 103.366ZM26.3823 50.0251L26.0621 50.3453V51.3698L26.7024 52.0102L27.3428 51.3698V50.9856L26.3823 50.0251ZM86.1265 98.8195L85.8064 98.4993V96.8984L86.4467 96.1941H87.4713L88.1116 96.8984V97.5388C87.6847 98.3072 87.023 98.8408 86.1265 99.1396V98.8195ZM26.0621 53.9312V56.5566C25.1656 56.642 24.7174 56.9622 24.7174 57.5172V57.8373H26.7024C26.7024 59.1607 27.1293 59.8224 27.9831 59.8224V58.7978L29.648 59.1821H30.2884L32.2094 57.8373L31.8892 57.5172V57.197C31.8892 56.642 32.3375 56.3218 33.234 56.2365V55.9163H29.648C27.6843 55.3186 26.7024 54.6569 26.7024 53.9312H26.0621ZM103.096 97.5388L104.697 97.2186V96.8984H104.376L102.776 97.2186V97.5388H103.096ZM30.9287 56.5566V57.8373L30.2884 58.4777H29.9682L29.3278 57.8373L30.9287 56.5566ZM12.999 58.99H13.7034L14.6639 60.2706L13.7034 60.911H12.999L12.0385 59.9505L12.999 58.99ZM6.8517 59.6303C7.83357 60.0572 8.36719 60.4841 8.45257 60.911L7.81222 62.5759C8.23912 62.5759 8.45257 62.2344 8.45257 61.5513H10.4376L11.3982 60.911H11.7183L12.3587 61.5513L11.7183 62.5759V62.8961H12.3587C13.4686 62.4265 14.0236 61.9782 14.0236 61.5513H14.9841C16.2648 62.4478 16.9051 63.5364 16.9051 64.8171V65.1373C14.5145 65.3507 13.1057 65.6709 12.6789 66.0978H9.09291C9.09291 66.5674 8.55929 66.8022 7.49205 66.8022L6.53153 67.7627L4.86663 67.4425H3.90611L1.60087 68.7232H0.640346L0 68.0829V65.1373L0.320173 64.8171L0 64.4969V62.8961H0.320173L0.960519 63.5364L0.640346 63.8566V64.1768L2.94559 64.4969C2.94559 64.07 3.69266 63.7499 5.1868 63.5364L4.86663 61.8715H6.8517V61.5513L6.21136 59.9505H6.53153L6.8517 59.6303ZM51.4838 115.725C47.7698 109.748 41.6865 99.5665 33.234 85.1801C27.9404 76.8983 25.1016 72.1384 24.7174 70.9004H25.4217V70.5802H24.7174L24.3972 70.9004C22.903 68.5525 22.156 67.0156 22.156 66.2899H24.7174V66.9943H26.3823L27.9831 67.3144L28.3033 65.9697L29.9682 66.2899H31.8892L33.8743 65.0092L34.8348 65.6495H35.155C35.155 64.5823 36.1369 63.8352 38.1006 63.4083L39.0611 63.7285V63.0882H39.3813C40.9181 64.5396 41.6865 65.8417 41.6865 66.9943C41.1316 66.9943 40.8114 67.4212 40.726 68.275L41.6865 68.9153H42.0067L41.6865 68.5951V67.6346H42.647L51.4838 82.4906V115.725ZM93.9388 88.3818L93.2984 87.7415H92.9782V88.3818H93.9388ZM89.7125 86.781V86.1406L88.1116 86.4608V86.781L88.4318 87.1011L89.7125 86.781ZM15.3043 68.0829H16.585L16.9051 67.7627H17.2893C17.5028 69.7264 18.1431 70.7083 19.2104 70.7083L19.5306 70.3881L20.1709 72.3091V74.6144H18.8902V75.2547H20.1709L20.299 121.808H2.94559L1.60087 121.488L0.320173 121.808L0 121.488V71.989C0.512277 70.6656 1.38742 70.0039 2.62542 70.0039C3.64997 70.0039 4.39704 69.7905 4.86663 69.3636H5.50698C7.4707 70.26 8.45257 70.9217 8.45257 71.3486L9.41309 71.0285C10.3096 71.2419 10.7578 71.989 10.7578 73.2697H11.078L11.7183 72.6293V71.989C10.8645 71.1779 10.4376 70.5162 10.4376 70.0039H8.77274L7.17188 69.6837V69.0434L8.13239 68.0829H12.3587V68.7232H13.7034V68.0829L13.3192 67.7627V67.4425L15.3043 66.482V68.0829ZM17.9297 67.4425H18.57C19.4238 67.784 19.8507 68.5311 19.8507 69.6837H19.5306C18.4633 69.2568 17.9297 68.5098 17.9297 67.4425ZM32.5936 68.9153V69.5557H33.5541V68.9153H32.5936ZM14.6639 69.6837L14.3438 71.3486V72.3091H14.6639C15.3043 72.0957 15.6244 71.4554 15.6244 70.3881L14.6639 69.6837ZM35.4752 71.2206V71.5407L36.8199 71.8609H37.1401V71.5407L36.4997 70.9004L35.4752 71.2206ZM36.4997 72.1811V73.1416L37.1401 72.5013V72.1811H36.4997ZM41.6865 74.1021H42.647L43.6076 72.5013H43.2874C42.7324 72.5013 42.1988 73.0349 41.6865 74.1021ZM40.0216 74.1021V74.4863H41.3664V74.1021H40.0216ZM3.26576 74.6144C4.11956 75.5536 4.54646 76.4074 4.54646 77.1758H4.86663C5.67773 76.322 6.33943 75.8951 6.8517 75.8951V75.2547C6.21136 75.2547 5.89118 75.0413 5.89118 74.6144H3.26576ZM12.3587 75.2547C12.3587 76.2366 11.2701 76.7702 9.09291 76.8556V78.5205H9.41309C10.2669 77.624 11.142 77.1758 12.0385 77.1758C12.0385 76.322 12.3587 75.8951 12.999 75.8951V75.2547H12.3587ZM17.9297 77.1758V77.496L18.57 78.2003H18.8902L18.57 77.1758H17.9297ZM12.999 77.8802V78.5205H14.9841V77.8802H12.999ZM46.233 78.0723L45.9128 79.0328V79.353H46.233L46.8733 78.7126V78.0723H46.233ZM6.8517 78.5205L6.53153 78.8407V79.1609H7.81222V78.8407L6.8517 78.5205ZM10.4376 81.0819H11.7183L12.3587 80.4415V80.1214C11.078 80.3348 10.4376 80.655 10.4376 81.0819ZM45.5926 83.2591H46.5532V82.6187H46.233L45.5926 83.2591ZM3.26576 84.988V85.6924L3.90611 86.3327H4.22628L3.90611 86.0126V85.6924L4.22628 85.3082V84.988H3.26576ZM102.071 64.9452V64.3048H101.751L101.111 64.9452H102.071ZM42.9672 90.4309V91.0713H43.2874L43.9277 90.4309H42.9672ZM77.738 57.6452L77.0977 58.2856H76.7775L76.1371 57.6452V56.3645L77.738 57.6452ZM93.0423 36.962V37.2822L93.7467 36.6419V36.3217L93.0423 36.962ZM58.3996 104.198L59.0399 104.839H59.3601V104.198H58.3996ZM61.6013 86.9731H61.2811V87.6134H62.2416L61.6013 86.9731ZM64.6749 79.6731V80.3135L65.3153 80.9538H65.6355V80.6336L65.3153 79.6731H64.6749ZM65.6995 73.91V74.2942H67.0442V73.91H65.6995ZM63.7785 72.3091H63.4583L64.4188 73.91H65.3793C64.8671 72.8428 64.3334 72.3091 63.7785 72.3091ZM69.9258 71.989V72.3091L70.5661 72.9495V71.989H69.9258ZM70.5661 70.7083L69.9258 71.3486V71.6688H70.246L71.5907 71.3486V71.0285L70.5661 70.7083ZM73.5117 68.7232V69.3636H74.4722V68.7232H73.5117ZM77.9941 56.4926C78.8053 55.8949 78.6131 55.6388 77.4178 55.7242H73.8319V56.0444C74.7284 56.1297 75.1766 56.4499 75.1766 57.0049V57.3251L74.8565 57.6452L76.7775 58.99H77.4178L79.0827 58.6057V59.6303C79.9365 59.6303 80.3634 58.9686 80.3634 57.6452H82.3485V57.3251C81.5801 57.2824 80.7476 57.2183 79.8512 57.1329L78.6345 56.4926H77.9941ZM82.8608 50.4093V50.7935L83.5011 51.4339L84.1415 50.7935V49.769L83.8213 49.4488L82.8608 50.4093ZM73.5117 61.1671V60.911H69.9258L69.2854 60.2706C69.2854 58.3069 70.2673 57.2183 72.231 57.0049L71.9109 56.6847C71.9109 56.1297 72.3378 55.8096 73.1916 55.7242L72.5512 54.6996V54.0593C74.3442 50.6868 76.3079 47.976 78.4424 45.9269H77.738C80.8117 39.9076 83.9707 34.5928 87.2151 29.9823H106.746C106.105 31.7326 102.519 37.8158 95.9879 48.2321C93.6826 52.7999 92.0604 55.0838 91.1212 55.0838C91.1212 56.3645 90.8011 57.0049 90.1607 57.0049L88.816 58.6057V57.9654H87.8555V58.6057L86.2546 58.9259C85.4435 58.9686 84.4616 58.99 83.309 58.99V59.6303L84.9099 59.9505L85.5502 59.3101L86.895 59.9505C88.1756 59.9505 88.816 59.6303 88.816 58.99H89.4563V59.3101L86.895 63.8566C86.7669 64.7104 85.3581 66.9943 82.6687 70.7083L82.3485 70.3881H81.6441V70.7083H82.3485C81.9643 71.9463 79.1254 76.7062 73.8319 84.988C65.3793 99.3744 59.296 109.556 55.582 115.533V82.2985L64.4188 67.4425H65.3793V68.403L65.0592 68.7232H65.3793L66.3398 68.0829C66.2545 67.2291 65.9343 66.8022 65.3793 66.8022C65.3793 65.6495 66.596 63.7499 69.0293 61.1031H69.3495V61.7434L70.31 61.4233C71.8041 61.0817 72.8714 60.9964 73.5117 61.1671ZM86.0625 63.6004C85.9344 63.4297 85.8704 63.1949 85.8704 62.8961H84.9099L84.4616 63.3443L86.0625 63.6004ZM83.1809 63.2803L81.6441 62.8961V63.2162L77.738 62.1917H75.817V61.5513H75.6249L76.0091 63.1522H77.9301L79.595 62.832L79.9152 64.1768L81.5161 63.8566H83.1809V63.2803ZM75.3687 61.5513H74.1521C74.2375 61.6794 74.2801 61.8502 74.2801 62.0636H74.6003L75.3687 61.5513ZM116.799 30.1744V31.1349H117.119C117.119 30.6226 117.568 30.3024 118.464 30.1744L119.104 31.1349V31.7752C118.464 31.7752 118.144 32.1168 118.144 32.7998L116.799 33.4401L115.518 33.12C115.092 34.1018 114.665 34.6355 114.238 34.7208L113.918 34.4007H113.533L112.573 35.6814L114.558 36.0656V38.3068C113.661 38.3068 113.213 38.6269 113.213 39.2673H111.932V35.6814L112.253 32.7998L111.932 30.4946L112.253 30.1744H116.799ZM121.025 30.1744H132.103L132.744 30.8147V39.5875H132.103C132.103 38.3068 131.89 37.6664 131.463 37.6664L130.823 38.3068V38.9471C130.823 39.374 131.463 39.8223 132.744 40.2918V50.3453L130.503 50.0251H130.182V50.3453L132.744 51.3698V55.2759H131.783V55.9163C132.424 55.9163 132.744 56.1297 132.744 56.5566V72.1811C131.89 72.1811 131.463 72.9495 131.463 74.4863L131.783 74.8065L130.823 75.4468H129.862C129.435 75.4468 129.222 74.8919 129.222 73.7819H128.838C128.838 74.8919 128.517 75.4468 127.877 75.4468H126.276L125.636 74.8065V73.4618C126.276 73.4618 126.596 73.2483 126.596 72.8214L126.276 71.2206L125.956 71.5407H125.636L125.956 71.8609V72.8214L125.252 73.4618H124.291C123.224 73.0776 122.69 72.117 122.69 70.5802V70.196L123.651 69.8758L123.01 67.9548C123.864 67.9548 124.291 67.3998 124.291 66.2899H126.917V65.0092H128.838L129.222 64.689H129.542C129.542 64.0487 129.094 63.7285 128.197 63.7285L127.877 61.7434L127.557 62.0636H127.237L127.557 62.3838V63.0882L126.596 64.0487L125.252 64.3689V65.3294L124.932 65.0092H124.291L123.651 66.9943L122.37 66.2899V66.9943H119.104V65.6495L119.425 64.0487C118.784 64.0487 118.464 63.8352 118.464 63.4083V62.0636L119.425 61.7434C119.809 63.2803 120.684 64.0487 122.05 64.0487V63.7285C120.94 63.0882 120.385 62.3197 120.385 61.4233L121.025 60.7829L121.346 61.1031H123.01V59.1821C123.01 58.7125 123.331 58.4777 123.971 58.4777V57.8373C122.69 57.8373 122.05 57.197 122.05 55.9163L121.73 56.2365H121.346L118.464 55.5961L118.144 55.9163V55.2759C118.784 55.2759 119.104 55.0411 119.104 54.5716V53.611H118.464V54.2514L116.799 53.9312H116.159V54.2514H116.799V54.8917L115.518 55.2759V53.611H116.479V52.3304L116.159 52.0102V51.69C117.013 51.3058 117.439 50.6441 117.439 49.7049H118.464L119.425 50.6655L118.784 51.3698L119.425 53.2909H120.065V52.0102H120.385L121.025 52.6505L120.705 52.9707V53.2909H121.346L123.331 52.6505V52.0102C122.093 52.0102 120.684 51.2418 119.104 49.7049V47.0795H118.464C118.464 47.5918 118.016 48.2535 117.119 49.0646L116.799 48.7444H115.198L115.839 50.9856C115.839 51.6687 114.963 52.5438 113.213 53.611V53.9312H111.932V51.3698L112.573 49.0646H111.932V47.7839H112.573V48.7444C114.195 48.7444 115.07 48.3175 115.198 47.4637V47.0795H114.878V47.7839C113.128 47.5704 112.253 46.802 112.253 45.4786L113.533 44.5181H115.518L115.198 46.119V46.7593H115.518C115.561 45.9055 115.775 45.4786 116.159 45.4786L115.518 42.5331L116.159 41.8927V41.5725C115.518 41.5725 115.198 41.3591 115.198 40.9322L114.878 41.2524H114.558L113.533 40.2918V39.9717C114.643 39.9717 115.198 39.5234 115.198 38.6269L114.878 38.3068L115.198 37.9866L115.518 38.3068H116.479L118.144 37.9866L118.464 39.9717H118.784C119.51 39.2886 120.15 38.9471 120.705 38.9471V38.3068L119.425 37.9866L120.385 35.041C119.83 35.041 119.403 34.4007 119.104 33.12L119.745 32.1595L121.346 32.7998L121.73 32.4796L121.025 30.4946V30.1744ZM137.034 30.1744H144.846L145.487 30.8147L144.846 31.4551V32.4796H145.166C145.807 32.4796 146.127 31.7112 146.127 30.1744H151.634L151.954 30.4946L152.338 30.1744H156.565C156.693 31.2416 157.013 31.7752 157.525 31.7752L157.845 31.4551H158.165L157.845 31.1349V30.1744H165.978V31.1349L166.298 30.8147L166.618 31.1349H167.258V30.8147L166.938 30.4946V30.1744H178.657L179.361 30.8147V46.4392L178.657 47.0795H170.204V46.119C169.777 46.119 169.564 46.4392 169.564 47.0795H150.994L150.033 46.4392L149.073 47.0795H137.034L136.33 46.4392V43.8778L136.65 43.4936L136.33 43.1734V33.12H137.034V32.1595H136.33V30.8147L137.034 30.1744ZM125.636 32.4796L124.932 33.7603H125.636L126.276 33.12L125.636 32.4796ZM129.862 33.12C130.289 34.8276 130.716 35.6814 131.143 35.6814L132.103 34.7208C131.676 34.7208 131.463 34.1872 131.463 33.12L131.143 32.7998H130.823L129.862 33.12ZM139.275 34.4007L140.236 35.041L140.556 34.0805L140.236 33.7603H139.916L139.275 34.4007ZM123.331 35.6814H123.651L124.611 34.7208H124.291L123.331 35.6814ZM166.298 34.7208C166.298 35.6173 165.658 36.0656 164.377 36.0656L164.057 35.6814L163.736 37.0261H165.658L166.618 35.041V34.7208H166.298ZM150.353 35.6814L150.033 37.0261H150.673L151.314 36.3857L150.353 35.6814ZM125.956 36.3857V37.9866H125.636L124.932 37.3463L125.252 37.0261H124.291V38.9471H123.651V39.5875H124.291C124.291 38.8191 125.273 38.3922 127.237 38.3068C127.749 37.453 128.283 37.0261 128.838 37.0261V36.3857H125.956ZM143.181 37.0261V38.3068L143.822 37.6664V37.0261H143.181ZM162.392 38.6269H163.352V37.6664L162.392 38.6269ZM138.955 39.2673L138.635 39.5875V39.9717L138.955 40.2918H139.275L139.595 39.9717L140.556 41.2524V43.1734H140.94L141.901 42.8532V42.5331C141.303 41.1243 140.321 40.0357 138.955 39.2673ZM122.69 40.9322V41.2524H123.331L123.651 40.2918H123.331L122.69 40.9322ZM117.439 41.5725V42.2129H117.824L119.425 41.8927V40.9322L117.439 41.5725ZM127.557 41.5725L127.877 43.1734H127.237V44.198H127.557L130.503 42.8532H130.823V42.5331L129.222 42.2129H128.197V41.5725H127.557ZM119.745 41.8927V42.8532H120.385V41.8927H119.745ZM123.01 43.1734V43.4936H123.651L124.291 42.8532L123.971 42.5331H123.651L123.01 43.1734ZM149.713 42.8532V43.4936H150.353L150.994 42.8532H149.713ZM139.916 43.4936V44.198H140.556L141.26 43.4936H139.916ZM157.525 43.4936L156.885 45.4786H157.205L158.165 44.5181V43.4936H157.525ZM122.37 44.5181V45.4786H123.01V44.5181H122.37ZM142.221 44.8383V46.119H142.541L142.861 45.1585L142.541 44.8383H142.221ZM162.072 45.4786V46.119L162.712 46.7593V45.4786H162.072ZM127.877 48.1041H125.956L125.252 47.4637L124.291 47.7839V49.0646L125.956 49.3848L126.276 49.0646L129.542 50.0251V49.7049C129.542 49.278 129.2 49.0646 128.517 49.0646V48.7444L129.862 47.4637H131.783L132.103 46.4392L131.783 46.119H131.143L127.877 48.1041ZM125.252 52.6505L124.932 52.9707V53.2909L125.956 54.2514L126.276 53.9312H126.917C127.984 53.9312 128.517 54.3795 128.517 55.2759H129.542V54.8917C128.646 53.9526 127.215 53.2055 125.252 52.6505ZM129.862 55.2759H131.143L130.503 54.5716L129.862 55.2759ZM111.932 54.8917H112.573L112.893 56.5566L112.573 58.7978L111.932 58.1575V54.8917ZM126.276 55.2759V55.9163C126.703 55.9163 126.917 56.3432 126.917 57.197H127.557L126.596 55.5961V55.2759H126.276ZM115.198 55.9163C115.668 55.9163 116.308 57.0049 117.119 59.1821H117.439L117.824 57.5172C117.141 57.5172 116.799 57.3037 116.799 56.8768L118.464 56.5566L120.065 57.5172H120.385V58.4777L119.745 59.1821H118.144C118.144 60.1639 117.802 60.911 117.119 61.4233H117.439L117.119 61.7434V62.0636L117.824 64.0487L116.799 64.689L115.839 63.7285H115.518L114.878 64.3689C114.878 66.0338 115.625 67.0156 117.119 67.3144V67.6346L117.439 67.3144H117.824L118.464 67.9548V70.196C117.354 70.196 116.799 70.4308 116.799 70.9004V71.2206C117.183 72.0744 117.952 72.5013 119.104 72.5013C119.104 71.2206 119.318 70.5802 119.745 70.5802V70.9004L120.705 70.5802V70.196C120.705 69.7691 120.385 69.5557 119.745 69.5557L119.425 69.2355V68.275L120.065 67.3144C121.815 67.3144 122.69 68.0615 122.69 69.5557C122.263 69.5557 122.05 70.1106 122.05 71.2206H121.346V72.1811C124.206 74.1875 125.636 75.3828 125.636 75.767C125.636 76.1939 126.17 76.4074 127.237 76.4074L127.557 76.7275V78.3924L127.237 79.9933H127.557L129.222 79.353L129.542 79.6731V79.0328C129.542 78.6059 129.094 78.3924 128.197 78.3924C128.197 77.9228 128.752 77.6881 129.862 77.6881V77.3679L131.783 78.0723V77.6881L132.103 76.4074H132.744V83.8994L132.424 86.2047L132.744 89.0862V110.602C132.744 111.37 132.317 112.245 131.463 113.227V113.868L131.783 113.547H132.744V113.868L132.424 114.188L132.744 115.789V120.015L130.823 122H129.222L128.197 121.36L128.517 121.039V120.015L126.596 120.719V121.36H124.611V120.015L125.956 119.375H126.276V119.054L125.636 118.414H125.252C125.252 118.969 124.611 119.631 123.331 120.399L121.346 120.015C121.602 118.521 121.943 117.774 122.37 117.774H123.971C123.971 117.133 124.526 116.813 125.636 116.813L126.917 114.828V114.508H125.636V112.587H126.917L128.838 114.188H129.542V113.868C128.432 113.868 127.877 113.206 127.877 111.883V111.562C128.774 111.562 129.435 111.029 129.862 109.961H130.182V110.602H130.823V109.641L130.182 107.016H129.542L128.517 109.001L129.222 109.641L125.636 112.203L124.611 111.883V112.203C124.611 113.185 123.758 113.846 122.05 114.188C121.58 113.206 120.919 112.672 120.065 112.587V111.562L120.705 110.922H121.025L122.69 111.242L122.37 110.922V110.602L123.01 108.681H121.346L121.73 109.001V109.641H120.705L120.065 108.297V107.976H119.745C119.745 109.513 119.531 110.282 119.104 110.282H118.464L117.439 109.961V110.282L116.799 112.203L116.479 111.883H116.159L115.518 112.587C117.055 112.587 117.824 113.014 117.824 113.868L118.144 115.468L115.518 115.789L115.839 116.109V118.414C117.162 118.414 117.824 118.628 117.824 119.054V121.039H115.839C115.454 121.039 115.134 120.378 114.878 119.054C113.341 119.054 112.573 118.841 112.573 118.414V116.109H113.213V115.789C112.359 115.789 111.932 115.575 111.932 115.148V109.321L114.238 107.336H111.932V107.016L112.573 106.055V105.095L111.932 104.07V84.8599C111.932 84.433 112.253 84.2196 112.893 84.2196V83.8994C112.253 83.8994 111.932 83.686 111.932 83.2591V76.0872L112.573 75.4468H112.893L113.213 75.767H113.533V75.4468L111.932 73.7819V61.1031H112.573L113.213 61.7434H112.893L113.213 62.768H113.918V61.1031C113.918 60.6762 114.558 60.4627 115.839 60.4627V60.1426L113.533 59.5022V58.7978L113.918 58.4777V58.1575L113.533 57.8373C114.344 57.4531 114.899 56.8128 115.198 55.9163ZM127.557 57.5172V58.4777H128.197L127.877 57.5172H127.557ZM128.197 59.1821C128.197 60.292 127.877 60.9323 127.237 61.1031L125.956 60.7829L123.651 61.1031V62.0636L128.197 61.1031L128.838 60.4627V59.8224L128.197 59.1821ZM136.65 65.0092C138.016 65.0092 138.998 65.9911 139.595 67.9548L139.275 68.275H139.916L140.236 67.9548L140.556 68.275H140.94L141.901 67.3144L140.236 65.6495V65.0092H140.556L140.94 65.3294H141.26L141.581 65.0092L143.181 65.3294H145.807L147.408 65.0092V65.3294L147.728 65.0092H148.752L149.713 65.3294L151.314 65.0092H156.885L159.446 65.6495L160.151 65.0092H160.471L160.791 65.3294L161.111 65.0092H174.11L174.75 65.6495V65.9697H174.43L172.829 65.6495L172.509 65.9697V66.2899L175.135 66.9943L175.455 65.9697H176.095V71.8609C174.516 71.6475 173.32 71.0925 172.509 70.196H170.524V69.5557H168.603C168.603 68.7019 168.155 68.275 167.258 68.275V68.5951C167.771 70.5589 168.326 71.5407 168.923 71.5407C169.564 71.5407 169.884 71.8609 169.884 72.5013L170.204 72.8214H170.524C170.524 71.9676 170.866 71.5407 171.549 71.5407L172.509 70.9004L174.43 72.1811H175.135L175.455 71.8609H175.775L176.095 74.1021V78.3924L175.775 78.7126L176.095 79.0328V79.353L175.775 81.5942L173.47 81.274L172.829 81.9784H172.189V81.5942L169.884 81.9784H165.978L165.658 81.5942L165.337 81.9784H163.032L162.712 81.5942L162.392 81.9784H160.471L159.126 81.5942L157.845 81.9784H155.54L154.9 81.274L152.338 81.9784H143.822C143.395 81.9784 142.968 81.3167 142.541 79.9933H142.221L141.581 80.9538L140.556 80.6336V80.9538C140.556 81.6369 140.022 81.9784 138.955 81.9784H137.034V81.274H138.635V80.9538L138.315 80.6336L138.635 79.6731H138.955L139.275 79.9933H139.595L139.916 79.6731V78.0723C139.916 77.6027 139.595 77.3679 138.955 77.3679L138.635 77.6881H138.315L137.354 77.3679L137.674 77.6881L137.354 78.0723V78.3924L137.674 79.353L137.034 80.9538H136.33V77.0477L136.65 76.7275L136.33 76.4074V69.5557H136.65C137.119 69.5557 137.461 70.4308 137.674 72.1811H137.995C137.995 70.8577 138.208 69.9826 138.635 69.5557V69.2355L136.65 67.3144V66.2899L137.034 65.9697L136.65 65.6495V65.0092ZM113.533 65.6495L113.213 66.6741L113.533 66.9943H113.918L114.558 65.9697L114.238 65.6495H113.533ZM147.087 66.2899V66.6741L148.048 66.2899V65.6495H147.728L147.087 66.2899ZM148.432 65.9697V66.6741H148.752L149.713 66.2899V65.6495H149.393L148.432 65.9697ZM130.182 66.9943L130.823 67.6346H131.463V67.3144L131.143 66.2899H130.823L130.182 66.9943ZM161.431 66.9943C162.072 66.9943 162.84 67.4212 163.736 68.275C163.736 67.6346 164.057 67.3144 164.697 67.3144C164.697 67.656 165.444 68.1896 166.938 68.9153V68.275C165.914 68.275 164.953 67.6133 164.057 66.2899H162.072L161.431 66.9943ZM127.237 67.6346V67.9548L127.557 68.9153H128.838V68.275L127.557 67.6346H127.237ZM148.048 68.275V69.2355H148.752V68.9153L148.048 68.275ZM141.901 68.9153C141.901 70.1106 142.434 70.9858 143.502 71.5407L145.166 69.2355V68.9153H144.846C144.846 69.3422 144.398 69.5557 143.502 69.5557V70.196H143.181V69.5557L142.541 68.9153H141.901ZM114.558 70.196L114.238 70.5802V71.5407L115.198 70.5802L114.878 70.196H114.558ZM157.525 70.196V70.9004H159.126V70.196L158.806 70.5802H158.486L157.525 70.196ZM147.087 70.9004V71.2206L147.408 72.1811H147.728L148.432 71.5407L147.087 70.9004ZM164.057 71.5407L164.377 72.8214H165.017L165.658 72.1811L165.017 71.5407H164.057ZM140.236 72.1811V72.8214H140.94C140.94 73.2483 141.26 73.4618 141.901 73.4618V75.767H142.541L142.861 74.1021C141.623 72.8214 140.748 72.1811 140.236 72.1811ZM164.377 73.4618V74.8065H164.697V73.4618H164.377ZM170.524 74.1021L170.844 75.767L171.869 74.8065L171.164 74.1021H170.524ZM145.807 74.8065L146.447 75.767L144.846 76.4074C144.846 76.7489 145.273 77.0691 146.127 77.3679C146.127 77.0264 146.661 76.7062 147.728 76.4074L148.048 76.7275L147.728 75.4468L147.408 75.767H146.767V74.8065H145.807ZM159.446 75.4468V76.7275L160.471 77.0477L161.111 75.1267L159.446 75.4468ZM116.479 78.0723H117.439V78.3924L115.839 78.7126V79.353H116.479V80.6336L116.799 82.2985L114.878 82.9389V82.6187L113.213 82.9389V83.2591L113.533 83.5792V83.8994L116.799 83.2591V83.8994H117.439V81.5942H119.104L118.784 80.3135L119.104 79.353H121.346L122.37 80.3135L122.05 80.6336V81.274L122.69 81.9784V80.9538H123.331L124.611 82.2985V82.6187L124.291 82.9389L124.611 83.2591V83.5792L124.291 85.1801H124.932L125.252 82.6187L125.636 82.9389H126.276V82.6187C125.849 82.6187 125.636 82.0638 125.636 80.9538C124.526 80.8257 123.971 80.5056 123.971 79.9933L125.252 77.3679H124.291V78.0723H123.331L123.01 77.6881H122.69L123.01 76.0872V75.767H122.37L122.05 77.6881L121.73 77.3679H121.346L121.025 78.3924H118.784V79.6731H117.439V79.0328H118.144V78.7126L117.824 77.6881H118.144C118.656 77.6881 119.083 76.941 119.425 75.4468H118.144L116.479 78.0723ZM139.916 76.7275V77.0477H140.236L141.901 76.7275V76.0872H141.581L139.916 76.7275ZM163.352 76.4074V77.0477L164.377 79.353H164.697V77.3679C164.27 77.3679 164.057 77.0477 164.057 76.4074H163.352ZM154.9 79.6731V80.6336H155.22L156.244 80.3135V79.9933L154.9 79.6731ZM164.057 79.6731C164.057 80.3135 163.822 80.6336 163.352 80.6336V81.274L164.697 80.6336V79.6731H164.057ZM119.425 82.2985C119.425 83.3658 119.211 83.8994 118.784 83.8994L117.824 83.5792C118.251 84.0915 118.464 84.8599 118.464 85.8845H119.104C119.489 85.8845 119.809 85.3295 120.065 84.2196L119.745 83.8994L121.025 83.2591V83.8994H121.346V82.6187L119.425 82.2985ZM129.542 82.6187V83.8994C129.841 83.8994 130.161 83.4725 130.503 82.6187H129.542ZM127.877 84.5398V84.8599L128.517 85.5003V84.5398H127.877ZM113.918 85.8845V86.5248L114.878 86.845L115.198 86.5248V84.8599H114.878L113.918 85.8845ZM125.636 87.8055V88.766H125.956L126.917 88.4459V87.8055H125.636ZM128.838 88.766V89.0862L129.222 91.3915H130.182C130.182 90.3242 130.716 89.7906 131.783 89.7906C131.655 88.9368 131.015 88.2751 129.862 87.8055L128.838 88.766ZM115.198 89.7906V90.4309L116.159 91.3915L117.824 90.7511V90.4309L117.119 89.7906L115.518 90.1108L115.198 89.7906ZM123.331 90.4309V91.0713H124.611L125.636 90.1108V89.7906H125.252L123.331 90.4309ZM128.517 92.0318L128.197 93.3765H128.838V92.0318H128.517ZM114.558 93.6967L114.238 94.0169V94.3371H114.558V94.0169L114.878 94.3371H115.518V94.0169L114.558 93.6967ZM115.839 94.3371V94.6572L116.799 95.6177V95.2976L115.839 94.3371ZM125.252 94.3371V94.9774L127.237 95.2976V95.6177C127.237 96.3435 126.917 97.1119 126.276 97.923V98.2432H126.917C127.343 98.2432 127.557 97.7949 127.557 96.8984L129.542 96.5783V94.9774L125.252 94.3371ZM118.784 95.9379V96.2581H120.065V95.6177H119.745L118.784 95.9379ZM113.533 97.6028V98.2432H114.238L113.918 98.5633V98.8835L114.238 99.844H113.918L112.893 100.164V100.484H113.918C114.686 98.9902 116.095 98.2432 118.144 98.2432V97.6028L115.198 98.2432L114.558 97.6028H113.533ZM130.823 97.6028L130.503 97.923V98.8835C131.143 98.8835 131.463 99.3104 131.463 100.164H132.424C131.57 99.1823 131.143 98.4353 131.143 97.923H131.783V97.6028H130.823ZM115.198 103.11V104.39L116.799 102.469L116.479 102.149L115.198 103.11ZM129.862 103.75C129.862 104.86 129.307 105.415 128.197 105.415V105.735L130.823 106.055V104.07L129.862 103.75ZM141.26 104.711H143.181L144.526 105.735C144.526 105.052 144.74 104.711 145.166 104.711H148.048V105.095L147.728 105.415V105.735L148.048 106.055H148.432L149.713 104.711H160.791L161.751 105.415L163.032 104.711C163.758 104.967 164.206 105.415 164.377 106.055L164.057 106.376L166.618 107.656V107.016C165.807 107.016 165.273 106.247 165.017 104.711H170.524C171.421 104.711 172.957 105.372 175.135 106.696L175.775 106.055L175.455 105.735V104.711H179.681L180.321 105.415V107.976L178.336 110.922H178.657L180.001 109.961H180.321V114.188L180.001 114.508L180.321 114.828V115.148L179.681 116.109L180.321 117.133V121.36L179.681 122H166.618V121.68L167.963 121.36V121.039H167.258V121.36L166.938 121.039H165.978V122H160.791L159.126 120.719L160.151 118.734C158.23 118.521 157.034 118.201 156.565 117.774L154.259 118.734V119.695C154.9 119.695 155.22 120.036 155.22 120.719H154.9L155.22 121.039V121.36L154.58 122H150.033V121.68C150.033 121.253 150.353 121.039 150.994 121.039L150.033 119.695H148.432V119.054H146.447C146.447 120.164 145.807 120.719 144.526 120.719L143.822 120.015V117.774H144.846L144.526 117.454V115.468L144.846 115.148V114.828C144.121 114.188 143.459 113.868 142.861 113.868V113.547L143.181 113.227L142.861 112.907V112.587L143.502 111.562C143.373 111.007 142.84 110.474 141.901 109.961L140.556 110.602L140.94 112.203C140.94 112.928 140.599 113.697 139.916 114.508V115.148C139.916 115.661 140.471 115.981 141.581 116.109V116.813H140.556C140.556 117.454 141.004 117.774 141.901 117.774V121.039H143.181V121.36L142.541 122H138.315C138.315 121.36 137.888 121.039 137.034 121.039L136.65 120.719V118.734L137.354 117.774V116.493H136.33V113.868L138.315 112.203C138.315 111.562 138.742 111.242 139.595 111.242V110.602H138.315L138.955 107.336C139.382 107.336 139.595 107.656 139.595 108.297C140.492 108.297 140.94 107.87 140.94 107.016L141.26 106.696L140.94 106.376H140.556V105.415L141.26 104.711ZM115.839 106.055L116.479 106.696L117.439 106.376V106.055H115.839ZM151.954 106.696V107.336H152.658V106.055L151.954 106.696ZM155.86 106.055V106.376L156.885 106.696V106.376L156.565 106.055H155.86ZM114.878 107.016V107.336L115.518 107.976H115.839V107.336L115.518 107.016H114.878ZM162.712 107.016V108.681L163.352 107.976L163.032 107.016H162.712ZM157.525 107.976L158.165 108.681L158.806 107.976H157.525ZM136.33 108.297H137.034L137.674 109.001V110.282H136.33V108.297ZM115.839 109.001V109.321L116.479 109.961L117.119 109.321L115.839 109.001ZM161.751 109.321L161.431 109.641V110.602H161.751C161.751 109.961 161.965 109.641 162.392 109.641V109.321H161.751ZM172.509 109.961V110.602L172.829 112.203H173.15L173.47 110.282L173.15 109.961H172.509ZM163.352 111.562V112.203L164.697 111.883V110.602L163.736 111.562H163.352ZM156.244 111.242V113.227L156.565 113.547V113.868H155.54C155.54 114.209 156.202 114.636 157.525 115.148V114.828L157.205 114.508V114.188L157.525 113.868L156.565 113.547C156.65 112.437 156.97 111.883 157.525 111.883L156.885 111.242H156.244ZM177.056 111.242L176.415 111.883C176.629 113.547 176.949 114.636 177.376 115.148L176.095 117.133H176.736C176.736 116.706 177.056 116.493 177.696 116.493V115.468L177.376 113.868L178.657 113.547L179.041 113.868L179.361 113.547L179.041 112.203L177.376 112.587L177.056 112.203L177.376 111.883V111.242H177.056ZM147.087 111.883V112.203L149.073 113.868L149.713 113.227H150.994L153.939 115.789L154.259 115.468V115.148C153.406 115.148 152.979 114.615 152.979 113.547L153.299 111.883L152.338 113.227H151.634L149.393 112.203L148.048 112.587L147.087 111.883ZM162.712 111.883V112.203L163.032 113.227H163.352V112.907L163.032 111.883H162.712ZM114.238 113.227C114.238 113.868 113.896 114.188 113.213 114.188L113.918 114.828L113.533 115.148V115.789H115.198V115.468C114.771 114.999 114.558 114.252 114.558 113.227H114.238ZM160.791 113.227V118.094C161.517 119.118 162.37 119.759 163.352 120.015V119.695L162.072 117.454L162.712 116.109L161.431 114.828V113.227H160.791ZM166.298 113.547V114.188L166.618 114.508H167.258V114.188L166.618 113.547H166.298ZM169.243 113.868L169.564 114.188L169.884 114.508C170.311 114.508 170.524 114.935 170.524 115.789L171.549 116.109L171.869 115.789V115.148L169.884 113.868H169.243ZM164.697 114.508V115.468L164.377 117.133H164.697L165.337 116.493V114.508H164.697ZM120.065 114.828V116.493L119.425 117.133L118.784 115.148L119.104 114.828H120.065ZM129.862 118.094V118.414H130.182C131.463 118.201 132.103 117.88 132.103 117.454V117.133H130.823L129.862 118.094ZM155.86 118.734C157.056 118.734 157.931 119.396 158.486 120.719H158.806V121.36L157.205 122H156.565C156.565 121.104 156.116 120.228 155.22 119.375L155.86 118.734ZM146.767 120.399H147.728L149.073 121.68V122H146.127L145.487 121.36L146.767 120.399ZM112.573 120.719L112.893 121.039V121.36L112.253 122L111.932 121.68V121.36L112.573 120.719ZM252.681 33.248L251.208 33.6322C250.61 33.6322 249.799 32.8638 248.774 31.327H248.454V30.1744H250.824L252.681 30.6867V33.248ZM252.681 43.9418L252.104 45.6708H252.424C252.51 45.6708 252.595 45.6708 252.681 45.6708V48.4883H251.848L252.104 46.5672V46.2471H251.848L250.824 48.4883H247.174V47.6558H246.533C246.533 48.2108 246.341 48.4883 245.957 48.4883H231.229C231.229 47.7625 230.503 47.3997 229.052 47.3997L228.732 47.6558L228.155 46.8234V45.9909C228.155 45.6067 228.668 45.4146 229.692 45.4146V45.0944C228.668 45.0944 228.155 44.817 228.155 44.262V42.8532L228.732 42.2769H230.012C230.012 42.8319 230.226 43.1094 230.653 43.1094L232.189 42.8532L231.869 42.5331V42.2769L231.549 42.5331H230.653L230.012 41.9567V41.0603C230.397 40.1211 231.293 39.6515 232.702 39.6515H233.086L233.406 40.548L235.199 39.9717C235.199 40.6974 235.711 41.0603 236.736 41.0603V43.3655H238.017V45.0944L238.273 45.4146V45.6708C238.913 45.6708 239.233 45.2865 239.233 44.5181L241.09 44.262L240.834 43.9418V43.6857L240.514 43.9418H239.81L238.913 43.1094L238.593 41.9567H237.696L238.017 41.6366V41.0603L236.16 40.548L236.736 39.3954H236.16V36.5138H237.376L238.913 36.7699C238.913 36.215 239.105 35.9375 239.489 35.9375H240.834L241.09 36.7699C239.639 37.1115 238.913 37.9012 238.913 39.1392H239.233C239.831 38.1574 240.535 37.6664 241.346 37.6664L241.987 38.1787L241.667 38.4989V39.9717H243.524C243.951 39.9717 244.164 40.2492 244.164 40.8041H244.804C244.804 39.6942 245.381 39.1392 246.533 39.1392L246.277 38.8191V38.4989L246.853 35.9375L246.533 35.6814H247.174C247.174 36.2363 247.387 36.5138 247.814 36.5138H248.774V35.9375H248.134L248.454 34.4647V33.9524H248.134V34.4647H247.558L247.174 33.3761H248.774V34.2086H249.991L250.311 33.9524H250.567C250.909 34.6781 251.528 35.041 252.424 35.041V35.9375L251.528 36.7699L250.824 36.2577L249.095 36.7699V37.3463H250.311V37.6664L249.671 38.1787L249.351 37.9226H249.095V38.4989L249.671 40.2278H250.311C250.311 39.1606 251.016 37.9226 252.424 36.5138H252.681V43.9418ZM249.671 41.9567L249.351 41.6366H249.095L248.134 42.5331L248.454 42.8532V43.3655C248.454 44.3047 248.027 44.7743 247.174 44.7743V45.6708H247.558C248.454 44.9023 249.159 43.6643 249.671 41.9567ZM247.174 45.9909V47.0795L247.814 46.5672L247.174 45.9909ZM247.558 30.1744V30.7507L245.957 31.0709L243.844 30.7507L244.484 30.1744H247.558ZM247.174 42.8532H246.533C246.533 43.1947 246.149 43.3655 245.381 43.3655V43.9418L246.853 43.1094H247.174V42.8532ZM246.533 33.0559C246.533 33.4828 245.53 34.0591 243.524 34.7849V35.041L245.06 35.3612C245.06 34.7635 245.274 34.4647 245.701 34.4647L245.957 35.9375L245.06 37.3463V37.6664H244.164L243.524 37.0901V35.6814C242.584 35.6814 241.859 35.3825 241.346 34.7849V35.041L241.09 34.7849H240.834L238.913 35.3612L238.273 34.4647L239.233 33.6322V33.3761L238.593 32.7998C237.056 32.7998 236.138 33.4615 235.839 34.7849H235.519L235.839 35.041V35.3612L235.199 35.9375H233.086C233.086 34.9556 232.873 34.4647 232.446 34.4647H232.189C231.378 34.8062 230.973 35.4893 230.973 36.5138C232.125 36.5138 232.702 36.7059 232.702 37.0901H232.446L232.702 37.9226H233.086C233.513 37.9226 233.726 37.6451 233.726 37.0901L233.982 36.7699H234.943L235.839 37.3463C235.839 38.8831 235.135 39.6515 233.726 39.6515C233.726 39.31 233.214 39.1392 232.189 39.1392V38.4989H231.229C229.308 41.0176 228.177 42.2769 227.835 42.2769C227.451 42.2769 227.259 42.7465 227.259 43.6857L226.939 43.9418H225.402L223.865 43.6857V43.9418L224.441 45.4146L224.121 45.6708H224.761C225.188 45.6708 225.402 45.2865 225.402 44.5181C225.829 44.5181 226.042 45.0091 226.042 45.9909H226.362L225.658 47.6558H226.042L227.259 47.976V48.4883H220.151L218.038 48.2321L215.284 48.4883H194.985C194.26 48.4883 193.427 48.1254 192.488 47.3997H191.912L192.168 47.6558V48.4883H191.912L191.592 48.2321L190.119 48.4883H186.149L184.228 46.8234V45.4146L184.868 44.5181L185.124 44.7743H186.149L185.444 43.1094H184.868V41.3804H186.149L186.661 42.5331V42.8532H186.981L187.621 42.2769V41.9567C187.066 41.9567 186.447 41.3804 185.764 40.2278L186.149 38.4989C187.515 38.7123 188.198 39.0112 188.198 39.3954V40.8041C188.795 40.8041 189.094 41.2951 189.094 42.2769L191.015 43.3655H191.271V42.2769H193.128V43.3655L191.592 45.0944V45.6708H191.912C191.912 44.7316 192.531 44.262 193.769 44.262H194.089C194.089 45.0304 194.601 45.6067 195.626 45.9909V46.2471H194.985V46.8234H195.882L198.379 46.2471V45.6708L196.458 44.7743L195.882 45.4146L193.449 42.2769L193.769 41.3804H193.449C192.509 41.3804 191.89 40.6334 191.592 39.1392C192.531 38.7123 193.043 38.1147 193.128 37.3463H194.089L194.729 37.9226V38.1787L194.409 39.6515L194.729 39.3954H194.985L196.778 39.9717V38.4989L196.458 38.8191H195.882V37.9226L197.163 37.3463H197.483V37.0901C196.031 37.0901 195.306 36.898 195.306 36.5138V35.9375L195.626 35.041H195.306L193.449 34.4647L193.769 34.2086V33.9524L193.128 33.3761C193.128 34.6995 192.723 35.3612 191.912 35.3612L190.439 35.6814L190.119 33.3761L189.799 33.6322H187.621C187.621 34.7849 187.408 35.3612 186.981 35.3612H185.124V33.6322C185.124 33.2907 185.743 33.0132 186.981 32.7998C186.981 31.4337 187.194 30.7507 187.621 30.7507H189.799V31.327H190.119C190.119 30.5586 190.311 30.1744 190.695 30.1744H196.138L198.059 32.2235V30.1744H198.379L199.276 30.7507H200.236L201.133 30.1744H219.254C219.639 30.1744 219.831 30.4732 219.831 31.0709H220.151C220.151 30.4732 220.364 30.1744 220.791 30.1744H227.579L228.155 30.7507V31.0709L227.835 31.327V31.5831H228.155L229.692 30.1744H241.667V30.7507L241.09 31.327V31.0709L240.13 31.327V31.9673H241.667C242.051 31.9673 242.243 32.5223 242.243 33.6322H242.563L243.203 31.5831H243.844L244.164 31.9673H244.484L244.804 31.5831C245.146 32.3089 245.722 32.7998 246.533 33.0559ZM245.06 43.9418H244.164V44.5181L245.06 44.262V43.9418ZM243.524 44.5181C242.456 44.5181 241.837 44.2406 241.667 43.6857L241.987 42.5331L241.667 40.548H240.834L241.667 44.5181L242.243 45.0944H242.883L243.524 44.5181ZM237.376 31.5831L236.48 31.327L236.16 31.5831V31.9673L237.056 32.5437L237.376 32.2235V31.5831ZM236.16 46.2471L235.519 46.8234V47.3997H235.839L236.736 47.0795V46.8234L236.16 46.2471ZM235.519 43.6857H235.199L234.303 43.9418V45.0944H234.943L235.519 43.9418V43.6857ZM233.086 32.5437L232.702 32.2235H231.869L232.702 33.0559L233.086 32.7998V32.5437ZM225.658 34.2086V35.041H225.402L225.082 33.6322H224.441V34.2086H223.225L221.688 34.4647L221.111 32.7998H221.368L221.111 31.327H220.791L220.471 31.5831H220.151L220.791 34.4647H220.151V35.041H222.392V36.5138L223.545 36.2577L224.441 36.5138V38.4989L223.545 39.3954L223.225 39.1392H222.648L222.008 39.6515H222.968V40.2278L221.688 41.3804H221.368L221.111 41.0603L220.791 41.3804H220.471L218.934 41.0603V41.6366L221.368 41.9567L221.111 42.2769V42.8532H221.368C221.368 42.469 221.901 42.2769 222.968 42.2769C223.054 41.2951 223.353 40.8041 223.865 40.8041L226.362 41.9567V41.0603H225.658V40.2278L226.042 39.9717V39.6515L227.579 39.9717H227.835V39.3954L226.042 39.1392L226.362 38.8191V38.4989L225.402 38.1787V36.2577H224.121V35.041H224.761V35.6814H225.082L226.042 35.3612V35.6814C226.042 36.1083 226.747 36.4711 228.155 36.7699V35.6814L225.658 34.2086ZM221.688 36.7699C220.663 36.7699 220.151 36.5992 220.151 36.2577L220.471 35.3612C220.002 35.7454 219.297 35.9375 218.358 35.9375V36.5138C218.358 36.8553 218.849 37.1328 219.831 37.3463L220.151 37.0901L220.791 38.1787H220.151V38.4989H221.368L221.688 36.7699ZM221.368 45.6708H220.151C220.151 45.9696 220.557 46.2684 221.368 46.5672V45.6708ZM219.575 44.262H219.254L218.614 44.7743H219.575V44.262ZM218.358 31.9673H217.718L217.397 32.7998L217.718 33.0559H219.254V32.7998L218.358 31.9673ZM216.501 42.2769H215.605V42.5331L215.861 43.3655H216.501V42.2769ZM215.605 45.0944H215.284L213.107 45.4146V46.2471C214.089 46.2471 214.58 46.7167 214.58 47.6558C215.391 47.5704 216.031 47.0155 216.501 45.9909L215.605 45.0944ZM214.58 33.0559H214.004L213.107 33.9524L213.748 35.3612H214.004L214.58 34.7849L214.26 33.3761L214.58 33.0559ZM214.004 40.2278H213.427V41.3804L214.26 42.2769H214.58V41.9567L214.004 40.2278ZM212.531 44.7743L211.25 44.5181V45.0944H212.531V44.7743ZM210.93 32.5437L210.61 32.2235H210.29V32.5437H210.61L210.29 32.7998V33.3761H210.61L210.93 32.5437ZM210.29 33.6322H210.034L209.137 34.4647H209.393L210.29 33.6322ZM210.29 41.9567H209.713L209.393 43.6857H209.137C208.454 43.6857 207.728 43.4082 206.96 42.8532H206.64V43.3655C206.64 43.7497 207.067 43.9418 207.92 43.9418L208.241 45.6708H209.713L210.29 41.9567ZM208.817 36.2577H208.561V37.3463H209.137V37.0901L208.817 36.2577ZM207.28 31.5831H206.64V32.2235L206.319 31.9673H205.999L205.103 32.2235V31.9673L204.783 31.0709H204.527V31.9673C205.935 32.6504 206.64 33.8884 206.64 35.6814H207.28L206.64 33.0559L207.28 32.5437V31.5831ZM207.28 46.8234L206.96 46.5672H205.999C205.999 47.1222 205.594 47.3997 204.783 47.3997V48.2321C205.722 47.4637 206.448 47.0795 206.96 47.0795V47.6558H207.28V46.8234ZM202.029 33.0559H200.813L202.67 34.4647L202.99 34.2086L202.029 33.0559ZM201.453 45.9909C200.428 45.9909 199.916 45.5 199.916 44.5181H199.596L199.276 46.8234H201.133L201.453 45.9909ZM199.276 33.6322L198.699 34.2086L198.956 35.041H199.276V33.6322ZM198.379 32.7998H198.059L197.483 33.3761V33.6322H198.059L198.379 33.3761V32.7998ZM196.458 33.6322H196.138L195.626 34.2086L196.138 34.7849L196.458 33.6322ZM192.488 32.2235C191.89 32.2235 191.592 31.9247 191.592 31.327L191.015 31.9673L190.695 31.5831H190.119V33.0559H190.439C190.866 32.7144 191.549 32.5437 192.488 32.5437V32.2235ZM191.015 37.3463H189.414L188.838 36.7699L190.695 36.2577L191.015 36.5138V37.3463ZM187.878 45.9909H187.621V46.2471C187.792 47.3997 188.091 47.976 188.518 47.976H188.838V46.8234L187.878 45.9909ZM185.444 30.7507L185.124 31.0709H184.868L184.228 30.4946L184.548 30.1744H184.868L185.444 30.7507ZM208.369 121.808V89.6625L209.329 88.1257L209.009 87.1652V86.845L209.329 86.4608H208.369V83.9634L209.009 83.2591H209.969L210.354 83.6433C210.354 81.2953 210.781 80.1214 211.634 80.1214L211.314 78.7766L211.955 78.2003H214.26V77.56C215.114 77.56 215.54 77.3465 215.54 76.9196H212.915L211.314 76.5354V76.9196L209.329 77.56H209.009L208.369 76.9196V64.7531H209.009V66.2899H209.649L210.354 64.4329L211.955 63.7925L212.275 63.4724H211.314L210.354 64.1127H209.009L208.369 63.4724V61.2312L208.689 60.911C209.329 60.911 209.649 60.5695 209.649 59.8864L208.369 58.0294V55.1479H209.009V53.547L208.369 52.5865V52.2663L209.009 51.626H210.354V52.2663H209.649V52.5865H211.634V51.626H215.54V53.2268H215.861L217.846 51.626H219.447C219.873 51.626 220.087 51.9461 220.087 52.5865H222.072C222.072 51.9461 222.285 51.626 222.712 51.626H225.018L225.658 52.2663L226.618 51.626H228.604L229.244 52.2663V54.8277H228.283C228.283 53.9739 227.622 53.547 226.298 53.547H225.978L226.298 54.5075L224.697 56.4286V56.7487L226.618 55.1479H227.323L228.283 56.1084V56.4286L227.963 58.0294C226.64 58.3283 225.978 58.6484 225.978 58.99V59.3101L227.963 58.3496C228.39 58.3496 228.604 57.816 228.604 56.7487H229.244V65.7136L228.283 65.3934L227.643 65.9697C228.283 65.9697 228.817 66.418 229.244 67.3144V81.4021H228.604V80.1214H226.939L229.244 82.6187V86.4608C228.604 87.5707 227.835 88.1257 226.939 88.1257C226.939 88.5099 227.28 88.702 227.963 88.702V90.3669L227.323 91.0073H225.338V89.0222C225.338 88.5953 225.658 88.3818 226.298 88.3818L225.658 87.4853C224.932 88.5099 224.057 89.0222 223.033 89.0222V89.6625H221.111L220.791 89.9827L221.432 91.0073L222.392 90.3669H224.057C224.484 90.3669 224.697 90.9859 224.697 92.2239C225.551 92.2239 225.978 92.6722 225.978 93.5686L227.643 92.5441H229.244V121.808H208.369ZM226.939 104.711L227.643 102.79L227.323 101.829H226.618V104.711H226.939ZM228.283 97.0905L228.604 95.4256L227.323 95.1055V95.4256L227.963 97.0905H228.283ZM211.634 95.1055V93.5686H210.994V95.1055H211.634ZM220.791 93.5686C222.115 93.5686 223.31 94.0809 224.377 95.1055L224.697 94.7853C224.441 94.1449 223.353 93.5046 221.432 92.8643L220.791 93.5686ZM215.54 93.5686V92.2239L214.9 92.8643V93.5686H215.54ZM209.009 92.2239C210.759 91.9251 211.634 91.5195 211.634 91.0073H210.674L209.009 92.2239ZM217.526 91.5836L217.846 90.6871V90.3669H216.821V91.5836H217.526ZM228.604 91.9037L228.283 91.5836L228.604 89.3424V88.702H229.244V91.9037H228.604ZM218.806 87.1652C219.105 88.1897 219.425 88.702 219.767 88.702C219.767 87.5494 220.322 86.5889 221.432 85.8204V84.6038L218.166 86.845V87.1652H218.806ZM209.969 86.845C210.567 86.845 211.229 87.1652 211.955 87.8055H212.275L213.235 86.1406L212.275 85.1801H211.955C211.314 86.0339 210.653 86.4608 209.969 86.4608V86.845ZM216.181 87.8055C216.181 87.3786 216.522 87.1652 217.205 87.1652V86.845H216.501V86.4608L216.821 84.924C218.145 84.4971 218.806 84.0702 218.806 83.6433V83.2591L217.526 83.6433H217.205L216.821 83.2591C216.821 82.4053 216.608 81.9784 216.181 81.9784V80.1214H215.861L215.54 81.7222L213.94 81.4021H213.619L212.915 81.9784V82.2985L213.619 83.9634H214.58L216.181 84.2836V84.924L215.22 85.8204L215.54 87.8055H216.181ZM228.604 86.1406V85.1801H226.618V85.8204L228.604 86.1406ZM225.018 83.2591H225.338V82.6187C223.801 82.1918 223.033 81.5728 223.033 80.7617H222.072V81.9784L223.033 81.7222L225.018 83.2591ZM208.689 81.9784L208.369 81.7222V78.7766H209.009C209.009 79.417 209.457 79.972 210.354 80.4415C210.354 81.5515 209.799 82.1705 208.689 82.2985V81.9784ZM225.658 79.7372C225.658 79.4383 225.231 79.1182 224.377 78.7766V79.417L225.658 79.7372ZM218.486 79.417L218.806 78.5205H218.486L218.166 78.2003H217.205L218.486 79.417ZM221.432 78.2003L221.752 77.8802C221.752 77.2398 222.072 76.9196 222.712 76.9196V76.2153C221.218 76.9837 220.471 77.5386 220.471 77.8802V78.2003H221.432ZM216.181 75.3188C216.181 75.703 217.376 76.0018 219.767 76.2153C218.7 75.5322 218.166 74.6998 218.166 73.7179H217.526C217.526 74.5717 217.077 74.9986 216.181 74.9986V75.3188ZM223.353 75.5749V75.3188L223.737 74.9986H222.392V75.3188L223.353 75.5749ZM211.634 75.3188C212.531 75.0199 213.193 74.4863 213.619 73.7179H212.595C211.528 73.7179 210.994 73.1843 210.994 72.117H210.674C210.674 72.7147 210.332 73.0135 209.649 73.0135V74.0381L209.969 74.3583L210.994 74.0381C211.421 74.0381 211.634 74.465 211.634 75.3188ZM223.033 70.8364C223.033 71.6901 224.014 72.4159 225.978 73.0135V71.7969C224.313 71.7969 223.438 71.37 223.353 70.5162H223.033V70.8364ZM214.9 72.3732H215.54L214.9 71.7969H214.26L214.9 72.3732ZM228.283 71.1565L227.963 69.8118H226.939L227.323 71.1565H228.283ZM216.501 67.9548V67.6346L216.181 66.6741H215.22C215.22 67.101 215.54 67.3144 216.181 67.3144V67.9548H216.501ZM213.619 66.6741H214.58L213.94 65.9697H212.915L213.619 66.6741ZM218.166 60.911V60.2706C217.526 60.2706 217.205 60.0572 217.205 59.6303H216.501V59.8864L218.166 60.911ZM220.087 60.911C220.557 60.8256 221.005 60.292 221.432 59.3101L221.111 57.7093H219.447V58.0294C220.343 58.0294 220.791 58.3496 220.791 58.99V59.6303L220.087 60.5908V60.911ZM214.9 59.6303L214.26 58.99H213.94V59.6303H214.9ZM217.526 56.4286V55.7882H216.501L215.861 56.4286H217.526ZM214.26 55.1479L214.58 53.8672L213.619 53.547L212.915 54.5075L214.26 55.1479ZM224.057 54.5075V53.8672H223.033V54.5075H224.057ZM295.968 27.4209H297.633L295.328 29.0858V28.7016L295.968 27.4209ZM258.316 29.7261H266.832L267.152 30.0463L267.473 29.7261H275.669V30.0463L275.029 31.0068V31.327H275.349L276.309 30.6867H277.014C277.441 30.6867 277.654 31.2416 277.654 32.3516L278.615 32.6717V76.5354H278.294L277.974 76.1512H277.654L277.334 76.5354V76.8556L278.615 78.1363V81.0819H277.974L278.294 80.7617V80.4415H277.334C277.334 82.0638 276.779 83.3658 275.669 84.3477H274.068V86.0126C274.708 86.0126 275.029 86.5462 275.029 87.6134H275.669C276.01 87.6134 276.459 86.7383 277.014 84.988L278.615 84.6678V121.36L277.974 122H277.334L275.989 121.039H275.669C275.669 121.68 275.456 122 275.029 122H273.684C273.257 122 273.044 121.68 273.044 121.039H271.122C271.122 121.68 269.799 122 267.152 122H265.551L264.207 121.68L262.926 122H258.636L257.675 121.039V120.335C258.999 116.664 260.087 114.828 260.941 114.828V114.444L260.301 113.804V114.828L258.636 114.444V115.468L258.316 117.069H257.675V84.3477C257.675 83.9208 258.657 83.7073 260.621 83.7073L261.261 82.7468L260.621 81.7222V79.8012L261.261 78.7766V77.8161H260.941C260.941 78.3711 260.407 78.798 259.34 79.0968L259.66 79.481L258.956 82.7468H258.316L257.675 82.0424V64.0487H259.34V63.4083L258.636 62.768L257.675 63.0882V38.5629L258.316 37.9226H258.956L259.98 38.5629V38.2427L259.34 37.2182V36.5778L259.66 36.2577V35.9375H257.675V30.3665L258.316 29.7261ZM282.521 29.7261H296.608C308.946 29.7261 317.889 33.0986 323.439 39.8436L323.759 39.5234V39.8436L323.439 40.1638C327.366 46.1403 329.33 52.373 329.33 58.8619V60.1426C329.33 67.6133 327.366 73.7179 323.439 78.4565H322.798V78.7766L323.119 79.8012L320.813 81.7222H320.493V81.0819H319.853L319.533 82.0424L319.853 83.067C315.328 87.8482 305.402 90.2388 290.077 90.2388H282.521L281.88 89.5985V81.4021L282.521 80.4415L281.88 79.8012V73.5898L282.521 72.8855H295.007C296.117 72.8855 297.099 73.227 297.953 73.91H298.914V73.5898L298.593 72.5653C305.125 70.4308 308.391 66.0764 308.391 59.5022V57.8373C306.939 50.6655 303.012 47.0795 296.608 47.0795C296.608 46.6099 295.968 46.3751 294.687 46.3751L291.357 46.7593L291.037 46.3751V46.055L288.796 47.0795L287.131 46.7593V46.3751L287.451 46.055V45.7348H286.811L285.466 46.7593H282.521L281.88 46.055V30.3665L282.521 29.7261ZM261.902 32.0314H262.606L263.246 31.327V30.6867H262.926L261.902 32.0314ZM259.98 35.6173L262.926 35.9375L263.246 35.6173V34.5928H260.941L259.98 35.6173ZM322.478 34.977H323.119C323.119 35.4039 323.439 35.6173 324.079 35.6173V36.5778H323.439C323.012 36.5778 322.798 36.2577 322.798 35.6173H322.478V36.2577H321.518L322.478 34.977ZM260.621 42.469L260.941 42.7892V43.1094L260.621 43.4295V43.8137L262.286 44.4541H262.606V44.1339L261.902 42.469H260.621ZM258.636 43.8137L258.956 45.4146L259.66 44.7743V43.8137H258.636ZM289.757 44.4541L290.397 45.0944L290.717 44.7743V44.4541H289.757ZM264.527 45.7348L264.847 46.055L264.527 46.3751V47.3997L266.192 47.0795H267.152V46.7593L266.192 45.7348H265.872L265.551 46.055L265.231 45.7348H264.527ZM290.077 47.0795V48.04H289.436V47.7199L290.077 47.0795ZM263.246 48.3602V50.3453L263.566 50.0251H263.887L264.207 50.3453V51.9461L263.566 52.6505H262.926C262.926 51.9675 262.371 51.626 261.261 51.626H259.98V52.2663C261.731 52.2663 263.246 53.5897 264.527 56.2365H266.192V55.9163C265.125 55.9163 264.356 55.3613 263.887 54.2514C263.887 52.928 264.655 52.2663 266.192 52.2663L265.551 50.3453C264.655 50.3453 264.207 49.5769 264.207 48.04L263.246 48.3602ZM310.056 50.3453L310.376 52.2663H311.016L310.696 51.9461V51.626L311.336 50.3453H310.056ZM267.473 51.626V51.9461L267.793 52.2663L267.473 52.6505V53.2909L268.497 52.9707V52.2663L267.793 51.626H267.473ZM316.587 52.9707L317.227 53.611L317.548 53.2909V52.9707H316.587ZM263.887 58.1575V58.5417L264.847 60.1426H266.512L264.207 58.1575H263.887ZM277.334 60.1426V60.7829H278.294L277.654 60.1426H277.334ZM319.533 60.1426V60.7829H321.518V61.4873H321.838V60.7829L320.813 60.1426H319.533ZM288.412 75.8311L291.037 76.8556L291.357 76.5354V76.1512C291.059 76.1512 290.738 75.7243 290.397 74.8705L290.077 74.5504H289.436C289.095 74.5504 288.753 74.9773 288.412 75.8311ZM282.521 76.5354V76.8556H284.506C284.506 78.179 285.488 79.1609 287.451 79.8012L287.771 79.481V79.0968C286.491 79.0968 285.85 78.3497 285.85 76.8556L286.491 76.1512L285.466 75.1907L284.506 75.5109V75.1907C283.182 75.703 282.521 76.1512 282.521 76.5354ZM273.684 76.5354L274.068 76.8556V77.8161C274.068 78.243 273.727 78.4565 273.044 78.4565L272.723 78.7766V79.0968H274.388V76.5354H273.684ZM295.968 76.5354V77.1758L296.608 78.4565L297.953 78.1363L297.249 76.5354H295.968ZM270.098 76.8556L269.778 77.1758V78.1363L270.098 77.8161L271.763 78.1363L272.723 77.1758L270.098 76.8556ZM268.497 79.0968V82.0424L269.137 83.067C270.461 82.7681 271.122 82.4266 271.122 82.0424V81.7222L269.458 82.0424L268.817 81.0819V80.7617L269.137 79.0968H268.497ZM290.397 80.4415V81.4021H291.037V80.4415H290.397ZM292.062 81.7222V82.0424H293.663V81.7222H292.062ZM291.357 82.7468V83.7073L292.062 83.067V82.7468H291.357ZM271.763 83.7073V84.3477L273.044 85.6924H273.364V85.3722H272.723V84.988L273.684 83.7073H271.763ZM261.581 86.0126V86.3327H261.902L262.606 85.6924V85.3722H262.286L261.581 86.0126ZM263.246 88.3178V88.638C263.673 89.1502 263.887 89.8973 263.887 90.8792L264.207 90.559H264.527L265.872 91.5836V90.559L264.207 88.3178H263.246ZM263.246 91.5836V92.5441H263.887V92.2239L263.246 91.5836ZM272.723 93.1844V94.209L273.364 94.8493H273.684V93.8248L273.044 93.1844H272.723ZM266.192 93.5046V94.209H268.177V93.5046H266.192ZM271.763 94.8493L271.122 96.4502V97.1546C271.976 96.685 272.403 96.0233 272.403 95.1695L272.083 94.8493H271.763ZM263.566 96.4502H263.887C264.783 96.1514 265.231 95.8312 265.231 95.4897H264.527L263.566 96.4502ZM263.566 97.1546L262.606 99.3958L263.566 100.1L266.192 99.3958V99.0756C264.655 98.5206 263.887 97.8803 263.887 97.1546H263.566ZM269.458 98.1151L269.137 98.4353V98.7554H270.098L269.458 98.1151ZM274.068 100.1H271.443C271.443 100.527 272.531 100.954 274.708 101.381H275.029L275.669 100.741V99.716L274.068 100.1ZM268.497 105.607V106.632L269.137 107.272H269.458L270.098 106.632C269.244 106.632 268.817 106.29 268.817 105.607H268.497ZM275.669 107.912V108.937L276.629 109.257L277.014 108.937V108.553L275.989 107.912H275.669ZM274.388 110.218C274.388 111.541 274.047 112.203 273.364 112.203L271.443 111.883C271.443 112.523 271.208 112.843 270.738 112.843V113.163L272.403 113.804C273.513 113.377 274.068 112.95 274.068 112.523H274.388L274.708 112.843H275.029C275.071 111.947 275.285 111.498 275.669 111.498C275.498 110.858 275.071 110.431 274.388 110.218ZM260.621 112.523V112.843H261.902V111.883H261.261L260.621 112.523ZM265.551 116.429C267.046 116.984 267.793 117.646 267.793 118.414H268.177C269.244 117.518 270.098 117.069 270.738 117.069L270.098 116.429H267.152L266.192 115.789L265.551 116.429ZM274.388 117.069V119.054H274.708L275.349 117.774L275.029 116.429L274.388 117.069ZM275.669 117.774V118.094L276.309 117.39V117.069L275.669 117.774ZM261.902 119.695L262.286 120.719C263.268 120.292 263.801 119.844 263.887 119.375V119.054H262.606L261.902 119.695ZM374.602 30.1744L374.923 30.4946V44.7743L373.066 46.055V46.3751L374.026 46.6953C374.026 46.055 374.218 45.7348 374.602 45.7348H374.923V46.3751L366.854 49.1927L361.539 53.2268L359.042 52.5865C359.469 53.5257 359.896 54.0379 360.323 54.1233C360.323 53.5257 360.515 53.2268 360.899 53.2268V53.8031C357.356 58.0721 355.093 63.4724 354.111 70.0039L353.791 69.6837H352.831C352.831 70.1106 353.151 70.3241 353.791 70.3241L354.111 70.6442V71.2846C354.111 73.7606 353.791 74.9986 353.151 74.9986H352.831L353.151 75.3188V75.9591L352.511 76.5354L351.614 76.2153L351.294 76.5354V76.8556L351.614 77.1758H351.934L352.831 76.8556C353.599 77.624 354.325 80.8471 355.008 86.5248L354.111 87.4213H353.791V87.7415H354.368V87.4213C355.435 87.4213 355.968 88.3605 355.968 90.2388L355.648 90.559C356.118 90.6871 357.783 93.2912 360.643 98.3712C360.643 98.8408 362.82 100.484 367.174 103.302L372.425 104.583V105.479L372.105 105.799V106.119L371.849 105.799H371.209V106.76H370.568V106.44L370.888 106.119V105.799L369.031 105.479C368.391 107.357 367.238 108.297 365.574 108.297V108.937C366.214 108.937 366.534 109.342 366.534 110.154V110.474L367.751 110.154L367.495 109.833V109.577C368.519 109.577 369.031 109.364 369.031 108.937V108.297L368.711 107.4H369.031L370.248 107.08H370.888L373.066 107.656V107.4C373.919 107.699 374.346 107.998 374.346 108.297L374.026 108.617V108.937H374.346L374.026 109.257V110.154L374.346 110.474V110.794L374.026 111.114H373.706L373.066 110.474C373.066 110.901 372.745 111.114 372.105 111.114L371.849 112.651H372.105L373.386 112.331C373.386 112.758 373.791 112.971 374.602 112.971V113.611L374.026 115.148H373.706L372.425 114.508L371.209 115.468V116.109H371.849V117.325L371.209 117.966L369.928 118.286V117.325H370.568V116.685L369.672 116.429C370.91 114.892 371.529 113.74 371.529 112.971C371.059 112.971 370.333 113.804 369.352 115.468L369.672 115.789H369.352L368.391 115.148H368.071L367.495 115.789C367.495 116.386 367.9 116.685 368.711 116.685L368.391 117.646L368.711 119.182L368.391 118.862H368.071V119.182C368.711 119.182 369.138 119.908 369.352 121.36H368.711V121.68L363.14 120.463L363.396 118.862L361.539 118.286L360.899 118.862C360.899 118.051 360.6 117.646 360.003 117.646H359.682C359.682 118.457 359.277 118.862 358.466 118.862C354.709 117.71 350.248 114.508 345.082 109.257L345.339 107.976L345.082 107.656H344.762L344.122 108.297L339.447 101.765L339.768 100.805H339.447C338.679 100.805 337.334 98.0084 335.413 92.416C335.413 90.5377 336.139 89.5985 337.59 89.5985L337.27 88.0617C337.697 88.0617 337.911 88.3818 337.911 89.0222L338.231 88.702H338.487L338.807 89.0222V88.0617H339.768L340.408 88.702L339.447 89.5985L339.768 89.9187V90.559L339.447 90.2388H339.127L338.807 92.416L340.408 92.7362V92.416C341.689 92.416 342.713 93.035 343.482 94.273L343.161 94.5932L343.482 94.9134H344.122L343.482 93.0564H343.802L344.762 93.3765V93.0564L345.659 93.6967L345.979 93.3765H346.619V94.0169L347.26 93.3765V93.0564L346.939 92.7362V92.416L347.26 92.0958L346.939 91.7757H346.619C346.619 92.6295 346.299 93.0564 345.659 93.0564H345.339C344.399 92.0318 343.674 91.5195 343.161 91.5195L342.585 92.0958H341.304C340.878 92.0105 340.472 91.4982 340.088 90.559C340.088 89.5345 340.6 88.702 341.625 88.0617L341.945 88.3818V88.0617L343.161 88.702L343.482 88.3818V88.0617L343.161 87.7415L343.802 86.5248L343.482 86.2047L343.802 85.8845H343.161L342.905 86.2047H342.585L341.625 85.8845V86.2047L340.984 86.845V86.5248L339.127 87.1652H336.31V87.7415H334.773C333.962 87.7415 333.556 86.1833 333.556 83.067L335.093 84.0275H336.054V83.3871L335.733 81.8503L336.63 80.8898H336.31L335.093 81.8503L334.453 80.5696L334.773 80.3135L333.556 79.6731C333.684 80.9111 333.876 81.5301 334.133 81.5301L333.876 82.4906C333.236 82.4906 332.916 80.2067 332.916 75.6389C332.916 70.6442 333.236 68.1469 333.876 68.1469L333.556 67.8267V67.5066C334.111 61.1458 336.801 54.102 341.625 46.3751C350.675 35.5746 361.667 30.1744 374.602 30.1744ZM378.957 30.1744C388.519 30.1744 397.762 33.803 406.684 41.0603C412.233 46.9088 415.457 51.7967 416.353 55.7242L415.713 56.6207V57.261L416.353 57.9014V55.9803C416.908 55.9803 417.527 57.7519 418.21 61.2952H417.57V60.3987C417.143 60.3987 416.929 61.0177 416.929 62.2557C416.545 62.2557 416.353 62.768 416.353 63.7925L416.033 64.1127H411.678L409.501 62.2557H409.181L409.501 62.5759V64.1127L407.964 64.7531H406.364V64.1127H405.723V65.0092L406.684 66.2899H406.364L406.043 65.9697H405.723V67.5066L401.689 66.2899V66.9302C401.689 67.5279 402.948 67.8267 405.467 67.8267C405.467 68.1682 406.086 68.5951 407.324 69.1074L408.221 68.7872L408.541 69.1074V68.7872L408.861 69.1074H409.181L410.398 68.7872L411.678 69.1074L412.319 68.1469C411.678 68.1469 411.358 67.6346 411.358 66.6101L410.142 66.9302L409.181 66.6101V65.9697C409.181 64.8171 409.693 64.0914 410.718 63.7925L411.358 65.3294L411.038 65.6495V66.2899H411.358C411.358 65.7349 412.084 65.308 413.535 65.0092L413.856 65.3294V66.2899C413.301 66.2899 412.981 66.8022 412.895 67.8267H413.535V67.1864C414.176 67.1864 414.496 66.7808 414.496 65.9697L414.752 65.6495V65.3294H414.176V65.0092H414.752L415.072 65.3294H415.392L418.53 63.7925L419.171 64.7531L418.85 65.6495C419.448 65.6495 419.747 66.8022 419.747 69.1074L418.85 70.6442L418.53 70.3241H417.89C417.89 70.879 417.378 71.1992 416.353 71.2846L416.033 71.6048V72.1811L418.21 71.2846L417.89 71.6048V72.1811H419.427L420.067 72.8214L419.747 73.1416V73.4618L420.387 74.0381L420.067 74.3583L420.387 75.9591L420.067 77.8161C419.64 77.8161 419.427 77.3892 419.427 76.5354H418.21V77.8161L417.89 79.353L416.673 79.0328L415.713 79.353L416.033 80.3135L417.249 79.6731V80.3135H418.21L418.53 79.9933H418.85V80.3135L418.53 81.21H420.067C420.067 89.4918 416.545 98.4139 409.501 107.976C400.323 117.325 390.056 122 378.701 122V121.36C379.298 121.36 379.597 121.168 379.597 120.783H378.38V116.429H378.957V114.508H379.917L380.878 115.148H381.134L382.415 114.508L380.558 112.011V110.794C380.558 108.574 381.39 107.336 383.055 107.08L382.735 106.76L383.055 106.44V105.223L381.454 105.479V104.583L384.272 103.942V104.262L383.951 104.583V104.903H384.592C384.592 104.049 386.257 102.79 389.587 101.125C392.063 99.0756 393.301 97.7309 393.301 97.0905H395.478V96.7704L395.158 96.4502V96.1941L394.837 96.4502H394.261V96.1941C394.261 95.8525 395.179 95.1268 397.015 94.0169V93.0564L396.758 91.5195L397.015 91.1994H397.655L397.975 91.5195L398.295 91.1994H398.615C399.213 91.1994 399.512 91.4982 399.512 92.0958H399.832V90.8792H398.295C397.868 90.8792 397.655 90.559 397.655 89.9187L397.975 87.7415H398.295L399.192 88.3818H399.512L399.192 88.0617C399.32 87.0371 399.64 86.5248 400.152 86.5248V85.8845C399.341 85.8845 398.936 85.671 398.936 85.2441V83.3871L399.192 83.067V82.8108L399.512 83.067H400.152C400.152 82.6828 400.472 82.4906 401.113 82.4906L401.369 80.8898H400.793V81.5301L400.152 82.1705H399.192V81.8503C399.32 79.5451 399.533 78.3924 399.832 78.3924H400.472V78.1363L399.512 76.5354V74.9986H400.152V74.6784L400.472 74.9986H400.793C401.39 74.9986 401.689 74.6784 401.689 74.0381H402.009V74.6784H405.147L406.364 74.3583L410.142 75.3188C411.038 74.2942 411.849 73.7819 412.575 73.7819L413.215 74.3583H413.535V74.0381C412.895 74.0381 412.575 73.846 412.575 73.4618H412.895L411.999 72.1811C411.785 72.736 410.633 73.2697 408.541 73.7819L407.964 73.1416H407.324L407.004 73.4618H406.684L406.364 73.1416V72.8214L407.004 70.9644L405.147 71.6048H404.186L403.866 71.2846L403.546 71.6048H403.29C402.991 71.1779 401.732 70.9644 399.512 70.9644L398.615 66.9302C399 66.9302 399.192 66.5033 399.192 65.6495L400.793 65.3294L397.335 62.2557L397.655 61.9355V61.6154L393.941 55.404C390.867 51.6473 386.918 49.0432 382.094 47.5918C379.618 47.293 378.38 46.8874 378.38 46.3751V30.8147L378.957 30.1744ZM400.793 40.4199V40.7401C401.177 40.7401 401.369 41.0603 401.369 41.7006H402.009V40.4199H400.793ZM348.156 46.055V46.9514C349.053 46.4819 349.565 45.9696 349.693 45.4146H349.437L348.156 46.055ZM413.215 57.9014C413.215 58.499 412.703 58.7978 411.678 58.7978V59.118H412.895L414.752 58.4777V57.9014H414.176L413.856 58.1575H413.535L413.215 57.9014ZM339.447 59.7584V60.3987H340.408V59.7584H339.447ZM353.791 65.9697C353.791 66.3966 353.471 66.6101 352.831 66.6101V67.1864H353.151L354.368 65.9697H353.791ZM347.516 66.6101V67.1864H348.476V66.6101H347.516ZM408.221 67.1864V67.5066L407.644 68.1469V67.8267L408.221 67.1864ZM407.004 69.3636V70.3241H407.324L407.644 69.3636H407.004ZM339.447 69.6837V70.3241L340.088 70.9644L340.408 70.6442V69.6837H339.447ZM342.265 70.9644V71.6048H343.161V71.2846L342.265 70.9644ZM412.575 71.8609L412.895 72.1811V72.5013L413.215 72.1811H414.496C414.88 72.1811 415.072 72.608 415.072 73.4618L415.392 73.7819H415.713L416.033 73.4618L415.713 71.6048H414.176L412.575 71.8609ZM337.27 72.1811V72.8214L338.231 73.1416V72.8214L337.27 72.1811ZM399.512 71.8609L401.689 72.5013L401.369 72.8214V73.4618L401.689 73.7819V74.0381L401.369 74.3583C399.917 74.3583 399.192 73.6325 399.192 72.1811L399.512 71.8609ZM344.122 72.8214V73.1416L344.442 74.0381C343.759 74.5504 342.82 74.8705 341.625 74.9986C341.625 74.4863 341.219 74.1662 340.408 74.0381L340.088 74.3583V74.6784C341.753 74.6784 342.585 75.7243 342.585 77.8161H342.265C341.838 77.8161 341.625 78.115 341.625 78.7126C339.96 79.4383 339.127 79.972 339.127 80.3135H339.447C341.326 79.8866 342.265 79.2462 342.265 78.3924L344.122 78.1363V78.3924L344.442 78.1363H345.082L344.762 78.3924V78.7126L345.082 79.0328L345.339 78.7126H345.659L346.299 79.353L345.979 79.6731H347.516V79.353L347.26 78.3924H347.836V79.0328H348.796L348.476 78.7126V78.1363H348.796L350.013 79.0328L350.974 78.7126L350.654 78.3924V78.1363L350.974 76.5354H349.117V75.9591H348.796V76.5354C347.345 76.2366 346.619 75.7243 346.619 74.9986V74.6784L346.299 74.9986H345.979C345.253 74.529 344.741 73.8033 344.442 72.8214H344.122ZM416.673 74.0381L416.353 75.6389L417.249 75.9591L418.21 75.6389L418.53 75.9591V76.2153L419.427 75.9591V74.6784H419.171C419.171 75.3188 418.957 75.6389 418.53 75.6389C417.676 75.6389 417.249 75.1053 417.249 74.0381H416.673ZM338.231 76.2153V77.1758L339.127 76.8556V76.2153L338.807 76.5354H338.487L338.231 76.2153ZM402.009 77.8161C402.009 78.4138 401.796 78.7126 401.369 78.7126L401.113 78.3924H400.793V78.7126C400.793 79.2249 401.924 79.6518 404.186 79.9933C404.186 80.591 404.4 80.8898 404.827 80.8898L405.147 80.5696V80.3135C404.507 80.3135 404.186 79.8866 404.186 79.0328L403.866 79.353H403.546C402.991 79.353 402.692 78.8407 402.65 77.8161H402.009ZM337.911 80.3135V80.8898H339.127L338.487 80.3135H337.911ZM341.945 80.3135L341.625 81.5301C342.052 81.5301 342.265 81.21 342.265 80.5696V80.3135H341.945ZM411.999 80.5696V80.8898H413.535L412.895 80.3135L411.999 80.5696ZM406.364 81.21L406.043 80.8898H405.723L405.467 81.21V81.8503L405.723 81.5301H406.684L407.644 82.1705V80.5696H407.324L406.364 81.21ZM340.728 82.4906V82.8108L341.625 81.8503H341.304L340.728 82.4906ZM405.723 82.1705V82.4906L406.043 83.3871L405.723 83.7073H406.684V83.3871L406.043 82.1705H405.723ZM408.861 83.067L409.181 84.0275H410.142V83.3871L408.861 83.067ZM417.57 83.067L417.249 84.0275H418.21V83.067H417.57ZM351.294 84.3477L351.614 84.6678V84.988L353.151 84.6678V84.0275H352.831L351.294 84.3477ZM349.437 84.988L349.693 85.8845L350.974 84.6678H350.333L349.437 84.988ZM345.339 86.2047L344.442 85.8845H344.122V86.2047L346.299 87.4213H346.619L346.299 85.8845L346.939 85.2441H346.619L345.339 86.2047ZM400.472 85.8845V86.2047L400.793 87.1652H401.689L401.113 85.8845H400.472ZM349.693 87.7415C349.693 88.3818 349.501 88.702 349.117 88.702L347.836 88.3818V88.702L347.516 88.3818H347.26L345.979 90.2388L346.299 91.5195H346.619C346.619 90.6657 347.132 90.0254 348.156 89.5985H349.117V89.9187H348.476L349.437 91.5195H350.974L351.294 91.1994H351.614L352.831 92.416H353.151C351.87 90.3669 350.931 89.3424 350.333 89.3424V87.7415H349.693ZM402.329 88.3818L402.009 89.5985H402.97L404.186 89.0222L403.866 88.702V88.3818L403.546 88.702H402.97L402.65 88.3818H402.329ZM334.453 89.0222H334.773L336.054 89.3424V89.5985L335.093 90.559H334.773L334.453 89.0222ZM344.122 89.5985L343.802 90.559L344.122 91.5195H344.442L344.762 90.559L345.659 90.8792V89.9187L344.122 89.5985ZM336.95 92.7362L336.63 93.0564V93.3765L339.768 95.2335V94.5932C339.768 93.8675 339.447 93.2485 338.807 92.7362L338.487 93.0564H338.231L336.95 92.7362ZM400.472 92.7362L401.113 93.3765H401.369L400.793 92.7362H400.472ZM355.328 94.273V94.5932H356.289V94.0169L355.328 94.273ZM398.295 96.7704L398.615 97.7309H398.936L399.512 97.0905V96.4502L398.936 95.8739C398.509 95.8739 398.295 96.1727 398.295 96.7704ZM404.186 96.4502L404.507 96.7704L404.186 97.0905H405.147L404.827 95.8739L404.186 96.4502ZM358.146 96.4502V97.0905L358.722 97.7309L359.362 97.0905L358.466 96.4502H358.146ZM345.659 98.3712L346.939 98.6274L347.516 97.7309H346.299L345.659 98.3712ZM400.152 98.0511V98.3712L400.472 98.6274H401.369V98.3712L400.152 98.0511ZM396.438 99.2677L396.758 100.228H397.015L397.655 99.5879V98.9475L397.015 98.3712C396.63 98.3712 396.438 98.6701 396.438 99.2677ZM356.545 99.9081L356.865 100.228V100.548L356.545 101.445L356.865 101.765H357.505C357.505 100.698 357.185 100.079 356.545 99.9081ZM359.042 101.445L357.505 102.982L360.323 102.085V101.765L359.042 101.445ZM346.939 102.085L347.26 103.302H347.836L348.476 102.726V102.085L348.156 102.405L347.836 102.085H346.939ZM341.945 103.942V104.903H342.265L343.161 104.583L342.585 103.942H341.945ZM353.471 103.942V105.223H353.791L354.111 103.942H353.471ZM367.495 103.942L367.751 104.262V104.583H367.174V105.223L368.071 104.583L368.391 104.903V104.583L367.751 103.942H367.495ZM343.802 104.583V105.479L344.122 105.799H344.442V105.479L344.122 104.583H343.802ZM358.146 104.903V106.119C358.146 107.144 358.658 107.87 359.682 108.297H360.323V107.08L358.146 104.903ZM345.979 107.08L346.619 107.656L346.939 107.4V107.656L347.836 107.4L347.516 106.44H346.619L345.979 107.08ZM350.333 107.656L350.974 108.297H351.614L351.934 107.08H351.614L350.333 107.656ZM378.957 107.4H379.597L379.277 108.937H378.957L378.38 108.297V107.976L378.957 107.4ZM349.117 109.257H349.437L350.013 108.617V108.297L349.117 109.257ZM352.19 108.297V109.257H352.831V108.297H352.19ZM353.151 109.577L353.471 109.833L353.151 110.154V110.474L353.791 111.114L354.688 110.794V111.434H355.008C355.008 111.007 355.435 110.794 356.289 110.794L356.865 110.154V109.577L355.968 110.154L354.111 109.577H353.151ZM383.055 110.154V110.474L383.951 110.794V110.154H383.055ZM378.38 111.114H378.957V113.611L378.38 114.188V111.114ZM350.974 112.651V112.971C351.401 113.996 352.126 114.508 353.151 114.508H354.688V114.188L353.151 113.932L352.19 114.188L352.511 113.932V113.291L350.974 112.651ZM356.865 112.971L356.289 113.932H356.865L357.185 112.971H356.865ZM390.163 113.932V114.188H390.803L391.123 113.291H390.803L390.163 113.932ZM361.86 114.828V115.148L362.18 115.468H363.14V115.148L361.86 114.828ZM365.317 114.828L365.894 116.429H367.174V115.789C366.748 115.789 366.534 115.468 366.534 114.828H365.317ZM355.328 115.468L355.008 116.429H355.328L356.545 115.789V115.468H355.968L355.648 115.148L355.328 115.468ZM363.717 116.429L363.396 116.685V117.005H364.037L363.717 117.325V117.646H364.997V116.685L363.717 116.429ZM374.602 116.109H374.923V118.606L374.602 118.862V119.182L373.706 118.862C373.962 117.027 374.261 116.109 374.602 116.109ZM383.055 117.325L382.735 117.646V118.286L383.631 118.606V117.966L383.055 117.325ZM372.745 119.182C373.983 119.182 374.602 119.716 374.602 120.783L374.923 121.68H374.602L372.105 122V121.68L371.209 120.463L370.888 120.783H370.568V120.143L372.745 119.182Z" fill="#D5CEBD"/>
<path d="M246.699 146.287V149.296L247.66 148.528H248.3L249.837 148.912V148.528L249.517 148.208L247.98 143.597H247.66L246.699 146.287ZM241 154.163V149.744L241.128 149.296L241 149.168V142.509L253.743 130.982V154.163H241ZM258.674 130.982H278.268L278.908 131.623V139.115L278.268 139.819H277.628C277.628 139.264 277.073 138.602 275.963 137.834V137.194H275.643L275.323 137.514H275.002L276.987 140.459L275.323 141.74H275.643L278.588 140.139L278.908 140.459V181.249H277.308L275.643 180.225C275.643 181.121 275.216 181.57 274.362 181.57C274.362 182.85 274.149 183.491 273.722 183.491H272.057L271.096 182.85L270.456 183.875L270.776 184.195H272.697V184.835C273.722 184.835 274.597 185.369 275.323 186.436L275.963 185.476C275.323 185.476 275.002 185.262 275.002 184.835V182.85H276.987L277.628 183.491V185.156C276.945 185.156 276.603 185.369 276.603 185.796C277.5 185.796 278.268 186.351 278.908 187.461V191.367L276.603 193.928H278.268V192.648H278.908V206.991C278.482 207.888 277.948 208.336 277.308 208.336L277.948 208.976L278.908 208.656V217.749H278.268C278.268 216.682 278.055 216.148 277.628 216.148L275.643 215.188V215.508C275.643 215.849 276.304 216.17 277.628 216.468L277.948 218.133V218.454L276.987 219.414H276.283L274.362 217.749V218.133L275.963 220.054L275.643 221.015H275.963C277.286 221.015 277.948 220.588 277.948 219.734H278.908V222.36L278.268 223H276.283L275.323 222.36L274.682 223H272.377C271.95 223 271.737 222.68 271.737 222.039H269.752C269.752 222.68 269.538 223 269.111 223H267.51L265.525 221.399H265.205V223H261.299V222.039H259.314V222.36H260.018V223H258.674L258.033 222.36V222.039L258.674 221.015V219.414H258.033V216.468L259.314 214.547C259.314 213.864 258.994 213.523 258.353 213.523L258.033 213.203V210.897L258.674 210.257H260.018L260.979 210.897H261.939L261.619 210.577L260.018 209.937L259.314 208.016H258.674V209.617H258.033V197.194L258.674 196.554H258.994L260.979 197.194V197.578L262.58 197.194H265.205C265.205 196.767 264.778 196.554 263.924 196.554V195.913H261.619L260.979 195.273L261.299 193.928C260.445 193.928 260.018 192.733 260.018 190.342L259.634 190.727H258.674L258.033 190.022V187.461H258.994L258.674 187.077V186.756L258.994 185.796L258.033 184.195V131.623L258.674 130.982ZM264.565 131.943L263.924 132.967H264.245L265.205 132.583L264.565 131.943ZM268.151 134.888V135.529L268.471 135.849H269.111V135.529L268.471 134.888H268.151ZM268.151 140.139V140.459L272.057 142.06L272.377 142.38H272.697L272.377 140.78V140.139L273.017 139.115H270.456L268.151 140.139ZM273.017 142.38L273.722 143.085H274.362V142.38H273.017ZM259.634 143.085V143.725L260.338 144.366L260.659 144.045V143.725L260.018 143.085H259.634ZM276.283 168.827V171.772H276.987L277.308 170.812L276.603 168.827H276.283ZM277.628 176.639L276.987 178.304V178.624L278.268 178.304L277.948 176.639H277.628ZM260.659 178.624V180.225H261.299V178.624H260.659ZM270.456 180.225L271.096 180.929C273.017 180.289 274.106 179.627 274.362 178.944L274.042 178.624C272.975 179.691 271.779 180.225 270.456 180.225ZM264.565 180.225V180.929L265.205 181.57V180.225H264.565ZM258.674 181.57L260.338 182.85H261.299C261.299 182.295 260.424 181.868 258.674 181.57ZM266.486 182.21V183.491H267.51V183.17L267.19 182.21H266.486ZM278.908 181.89V185.156H278.268V184.515L277.948 182.21L278.268 181.89H278.908ZM267.83 186.756V187.077L271.096 189.382V188.101C269.986 187.333 269.431 186.351 269.431 185.156C269.09 185.156 268.77 185.689 268.471 186.756H267.83ZM259.634 187.077V187.461C260.317 187.461 260.979 187.888 261.619 188.741H261.939L262.9 187.781L261.939 186.116H261.619C260.893 186.756 260.232 187.077 259.634 187.077ZM265.205 186.116L264.885 188.101L265.845 189.062V189.702L264.245 190.022H263.284L262.58 191.687V192.007L263.284 192.648H263.604L265.205 192.327L265.525 193.928H265.845V192.007C266.272 192.007 266.486 191.58 266.486 190.727L266.87 190.342H267.19L268.471 190.727V190.342C268.471 189.915 267.809 189.489 266.486 189.062L266.166 187.461V187.077H266.87V186.756C266.187 186.756 265.845 186.543 265.845 186.116H265.205ZM276.283 188.101V188.741H278.268V187.781L276.283 188.101ZM272.697 192.327L271.737 192.007V193.288H272.697C272.697 192.434 273.466 191.794 275.002 191.367V190.727H274.682L272.697 192.327ZM258.353 191.687C259.463 191.815 260.018 192.455 260.018 193.608C259.122 194.078 258.674 194.633 258.674 195.273H258.033V192.327L258.353 192.007V191.687ZM274.042 194.633V195.273C274.896 194.931 275.323 194.611 275.323 194.312L274.042 194.633ZM266.87 195.913H267.83L268.151 195.593H268.471L268.151 194.633L266.87 195.913ZM270.136 195.913V196.234C270.136 196.575 270.883 197.13 272.377 197.898V197.194C271.737 197.194 271.416 196.874 271.416 196.234L271.096 195.913H270.136ZM265.845 198.859V199.179C266.742 199.179 267.19 199.606 267.19 200.46H267.83C267.83 199.478 268.364 198.624 269.431 197.898C267.041 198.112 265.845 198.432 265.845 198.859ZM272.057 198.859V199.179H273.402L273.017 198.859V198.539L272.057 198.859ZM261.299 198.859C261.299 199.713 261.086 200.14 260.659 200.14L259.634 199.819L259.314 200.14V201.164C259.997 201.164 260.338 201.484 260.338 202.125H260.659C260.659 201.015 261.192 200.46 262.259 200.46H263.284C262.857 199.691 262.195 199.158 261.299 198.859ZM272.697 203.405V203.726H273.017C273.103 202.872 273.978 202.445 275.643 202.445V201.164C273.679 201.805 272.697 202.552 272.697 203.405ZM263.924 202.445H264.565L265.205 201.805H264.565L263.924 202.445ZM276.987 203.085L276.603 204.43H277.628L277.948 203.085H276.987ZM265.845 206.351V206.991C265.205 206.991 264.885 207.205 264.885 207.632H265.845L266.166 206.671V206.351H265.845ZM262.58 208.336H263.604L264.245 207.632H263.284L262.58 208.336ZM266.166 214.547V214.868H266.87C266.87 214.398 267.19 214.163 267.83 214.163V213.523L266.166 214.547ZM269.752 213.523V213.843L270.456 214.868V215.508C270.456 216.148 270.008 216.468 269.111 216.468V216.789H270.776L271.096 215.188C270.669 214.163 270.221 213.608 269.752 213.523ZM263.604 214.868V215.508H263.924L264.565 214.868H263.604ZM265.525 218.133L266.166 218.774H267.19V218.133H265.525ZM262.58 220.054L263.284 221.015L264.245 220.695L263.924 219.414L262.58 220.054ZM272.697 220.054V220.695H273.722V220.054H272.697ZM278.908 181.89V185.156H278.268V184.515L277.948 182.21L278.268 181.89H278.908ZM258.353 191.687C259.463 191.815 260.018 192.455 260.018 193.608C259.122 194.078 258.674 194.633 258.674 195.273H258.033V192.327L258.353 192.007V191.687ZM309.965 147.183L310.99 147.503L311.31 147.183V146.799L310.285 146.158L309.965 146.479V147.183ZM309.709 158.901L310.029 159.222H310.99L310.67 158.901L310.99 157.236L310.029 156.276L309.709 158.901ZM310.99 155.764C311.118 155.764 311.225 155.742 311.31 155.7V155.956L311.63 156.276H311.95V155.508C312.633 155.294 312.975 155.038 312.975 154.739L312.335 154.099H311.95L311.438 154.611H309.389V155.315L309.709 154.931H310.67C310.798 154.931 310.904 154.974 310.99 155.059V155.764ZM310.606 172.733L310.926 171.452C309.816 171.452 309.261 171.025 309.261 170.171H308.941V171.132L309.261 172.733H310.606ZM307.596 165.817V166.137L307.916 167.098L308.877 166.137L307.596 165.817ZM309.197 189.254V189.894H309.517L310.157 189.254H309.197ZM293.957 193.928L294.661 192.648L294.341 192.327L294.661 191.943H292.676L293.316 192.968L292.036 193.288V193.928H293.957ZM291.139 194.184V194.825H292.1V194.184H291.139ZM302.409 181.185C302.452 181.313 302.473 181.442 302.473 181.57H302.793L302.985 181.442H302.665L302.409 181.185ZM304.65 190.534L304.33 190.855V191.175L305.931 191.495V190.855L304.65 190.534ZM307.788 148.336L308.044 148.592H308.364V147.631L309.325 146.479H309.709V146.03L312.206 143.021H312.335V142.893L322.324 130.982H323.797V136.489L321.684 135.465V136.425H322.388V137.386L322.004 137.706V138.026L320.403 137.706H320.083V138.346L322.004 138.666L321.684 138.987V139.371L322.708 139.691V141.932H323.797V143.277H323.348V142.573H323.028L322.004 142.893V142.573C322.004 142.06 321.257 141.633 319.763 141.292V142.573L322.388 144.237V143.277H322.708L323.028 144.878H323.669V144.237H323.797V158.709C322.644 160.033 321.342 161.484 319.891 163.064C318.14 165.155 316.454 167.162 314.832 169.083V168.827L315.152 168.507H314.832L314.512 168.827L312.847 168.507H312.206V169.851L313.871 170.171H313.935C312.1 172.349 310.371 174.419 308.749 176.383H290.947C290.904 176.383 290.84 176.361 290.755 176.319V176.383H284.992L284.8 175.742L307.788 148.336ZM290.435 178.432V178.624L290.051 178.944V179.264L288.45 178.944H288.129L290.755 180.545L291.075 180.225H291.395L291.715 180.545V180.929L291.075 182.53L286.529 182.85V183.17L287.169 184.131L288.77 183.811L290.435 184.451V185.796L290.051 186.116L290.435 186.436V187.717L289.41 188.741H287.169L287.489 187.077L287.169 186.756H286.529L286.144 188.357L286.529 190.663L286.144 190.342H285.824L285.184 190.983V191.303L285.504 191.623V191.879L284.928 192.007V192.199C284.415 192.455 284.053 192.669 283.839 192.84V183.491H285.824V183.17L284.864 180.929L285.184 179.264H284.544C284.544 179.563 284.309 179.755 283.839 179.841L284.479 178.432H290.435ZM322.516 199.435V198.155H322.196C321.385 198.795 320.616 199.115 319.891 199.115L319.57 198.795V199.435L319.25 199.115H317.265V198.475L317.585 198.155L317.265 197.834V197.194L319.891 195.849H320.211V194.889L319.891 194.569V194.248L319.57 194.569H319.25C318.823 194.569 318.61 194.248 318.61 193.608L316.625 194.569L316.305 194.248V194.569L316.945 195.529C316.945 196.17 316.518 196.49 315.664 196.49L315.985 196.81V197.514C315.985 198.155 315.558 198.475 314.704 198.475V198.795H315.344L315.664 198.475C315.664 198.902 315.985 199.115 316.625 199.115V199.435H305.931C306.016 199.136 306.059 198.838 306.059 198.539V197.322H305.419V197.642L305.739 199.179C305.611 199.179 305.461 199.265 305.291 199.435L302.473 199.371V199.115H301.449L301.193 199.371H292.804C292.719 199.115 292.676 198.816 292.676 198.475H291.715C291.715 198.816 291.694 199.115 291.651 199.371H287.105C286.763 198.987 286.123 198.795 285.184 198.795V198.155C286.721 196.575 287.489 195.273 287.489 194.248L286.529 193.288V192.968C286.785 192.968 287.041 192.882 287.297 192.712L288.642 192.968L287.681 192.391C287.852 192.263 288.001 192.114 288.129 191.943H289.41V189.382L291.715 188.741L292.356 189.382L292.996 187.397L292.676 186.116L293.636 185.156L292.676 183.491V182.85C292.676 182.423 293.551 182.103 295.301 181.89L295.622 182.21L295.942 181.89V181.57C295.387 181.57 295.067 181.121 294.981 180.225L295.622 179.585C294.512 179.585 293.871 179.2 293.7 178.432H300.232C300.189 178.475 300.168 178.539 300.168 178.624C301.022 179.35 301.641 179.969 302.025 180.481V179.136L302.345 178.816V178.496C302.943 178.709 303.434 179.008 303.818 179.392C303.69 179.094 303.519 178.773 303.306 178.432H322.964L323.797 179.2V184.771L323.477 184.451H322.196V184.771L322.516 185.092L322.196 185.412V186.436L322.516 186.116H322.836C322.836 186.756 323.156 187.077 323.797 187.077V198.539L322.708 199.435H322.516ZM363.242 180.545H363.178V181.185H363.242V198.411L362.538 199.051H362.346C361.449 198.624 361.001 198.091 361.001 197.45L360.36 198.091L360.681 199.051H355.43V198.411C356.497 198.411 357.031 198.197 357.031 197.77L357.991 195.785H357.671C357.33 195.785 357.009 196.447 356.711 197.77L355.046 198.091H354.725L353.765 197.13V196.426L355.43 194.505H355.046L353.125 196.105L352.228 195.785C352.484 195.7 352.74 195.657 352.997 195.657V195.273C352.313 195.273 351.652 194.846 351.011 193.992H350.691L350.179 194.505V192.52C350.179 192.093 350.499 191.879 351.14 191.879V190.534C350.499 190.534 350.179 190.321 350.179 189.894V188.293L351.78 186.308V185.988H350.179V183.235C350.521 183.533 350.905 183.747 351.332 183.875C351.332 183.021 351.545 182.594 351.972 182.594L352.997 182.914L353.317 182.594V181.57C352.634 181.57 352.292 181.249 352.292 180.609H351.972C351.972 181.719 351.438 182.274 350.371 182.274H350.179V182.082H351.14V180.097H350.819V180.801H350.179V179.456L350.819 178.816H351.14L352.164 179.456H353.765V178.816H358.439L359.08 179.456V180.801L358.439 181.762V182.722L358.76 182.402L359.4 180.801L361.321 180.097V179.456H359.72V178.816H362.666L363.242 179.456V180.545ZM336.988 180.289V181.57C337.116 181.527 337.244 181.484 337.372 181.442V181.506L338.333 182.082V181.762L338.14 181.121C339.336 180.609 339.933 180.011 339.933 179.328V179.008H339.613C339.528 179.691 338.93 180.097 337.82 180.225L337.692 179.905H337.372V180.289H336.988ZM347.105 164.6L346.465 163.96H345.44V164.6H347.105ZM342.879 169.211V168.891L342.175 167.866V167.226C342.175 166.586 342.623 166.265 343.519 166.265V165.945H341.854L341.534 167.546C341.961 168.571 342.409 169.126 342.879 169.211ZM345.569 168.378C345.398 168.507 345.142 168.571 344.8 168.571V169.211L346.465 168.186V167.866H345.761C345.761 167.994 345.739 168.101 345.697 168.186V168.378H345.569ZM339.421 169.147L339.101 169.467L340.062 171.452H340.382V170.107L339.421 169.147ZM343.647 169.467V170.107L344.288 170.812H344.608V170.492L344.288 169.467H343.647ZM342.623 151.089C343.263 151.089 343.583 151.751 343.583 153.074H344.224L343.263 150.449H342.623V151.089ZM340.638 150.129L341.983 150.449V149.808L340.638 149.488V150.129ZM345.697 168.186V167.098H344.736V167.738L345.376 168.378H345.569C345.611 168.336 345.654 168.272 345.697 168.186ZM343.071 154.611C344.395 154.611 345.056 154.953 345.056 155.636L344.736 157.557C345.376 157.557 345.697 157.791 345.697 158.261H346.017L346.657 156.596C346.23 155.486 345.803 154.931 345.376 154.931V154.611L345.697 154.291V153.971C344.8 153.928 344.352 153.715 344.352 153.33C343.712 153.501 343.285 153.928 343.071 154.611ZM332.954 154.931V157.557C333.381 157.557 333.807 156.468 334.234 154.291V153.971L333.594 153.33H332.569L332.954 154.931ZM341.919 147.183H342.559V146.479L342.879 146.799H343.199L344.16 146.479V146.799L344.48 147.823H344.8V146.799C343.306 146.03 342.559 144.622 342.559 142.573H341.919L342.559 145.518L341.919 146.158V147.183ZM336.348 132.199L337.692 132.519V131.879H336.348V132.199ZM330.2 146.799H330.841L331.161 145.838L330.841 145.518H329.176V145.838L330.2 146.799ZM328.855 132.839H329.176L329.816 132.199H328.855V132.839ZM326.614 141.292C327.682 141.292 328.215 141.505 328.215 141.932L327.895 142.893C328.407 142.466 329.176 142.252 330.2 142.252V141.612C330.2 141.228 329.645 140.908 328.535 140.651L328.215 140.972L327.575 139.691H328.215V139.371H326.934L326.614 141.292ZM327.703 157.236L329.304 157.877H330.008C329.539 157.023 328.877 156.596 328.023 156.596L327.703 156.916V157.236ZM329.304 165.433V165.113C329.005 164.216 328.685 163.768 328.343 163.768V164.472L329.304 165.433ZM330.008 165.433L332.249 166.393L332.954 165.433L332.249 162.807H331.929C331.374 164.344 330.734 165.113 330.008 165.113V165.433ZM330.969 159.542L331.289 159.862H331.609V158.901L330.969 159.542ZM331.609 171.772L331.929 172.092V170.492C331.075 170.705 330.648 171.239 330.648 172.092H328.343V172.733H329.944V173.117H328.087V173.693H329.624L331.161 173.437L331.801 174.334L332.698 174.014V173.117L332.121 172.477H330.648L331.609 171.772ZM336.476 174.014V175.678H337.116C338.269 175.123 338.93 174.462 339.101 173.693L337.5 171.772H337.116L336.476 174.014ZM345.761 186.82H344.8L344.48 187.141H344.16L344.48 188.101L345.761 186.82ZM346.145 200.524V199.243H345.12V199.563L345.44 200.524H346.145ZM327.703 219.926L327.383 220.311V220.631L328.984 221.591L329.304 221.271V220.311L327.703 219.926ZM326.742 218.325V218.966H328.023V218.005H327.703L326.742 218.325ZM335.835 209.104V209.681L336.476 210.321H338.012C338.012 209.51 337.586 208.891 336.732 208.464H336.476L335.835 209.104ZM328.087 214.355C328.087 215.38 327.553 215.892 326.486 215.892V216.853H326.806L329.624 214.676L328.087 214.355ZM330.52 217.173V217.749H332.121L331.481 217.173H330.52ZM342.175 202.509L341.534 201.805C339.613 202.445 338.525 203.107 338.269 203.79L338.589 204.11C339.656 203.043 340.851 202.509 342.175 202.509ZM344.8 195.977V195.657L341.534 193.352V194.633C342.644 195.401 343.199 196.383 343.199 197.578C343.541 197.578 343.861 197.045 344.16 195.977H344.8ZM339.933 190.406L340.894 190.727V189.446H339.933C339.933 190.3 339.165 190.94 337.628 191.367V192.007H337.948L339.933 190.406ZM338.589 188.101V187.461C337.735 187.802 337.308 188.122 337.308 188.421L338.589 188.101ZM346.785 183.875V183.555C345.889 183.555 345.44 183.128 345.44 182.274H344.8C344.8 183.256 344.266 184.11 343.199 184.835C345.59 184.622 346.785 184.302 346.785 183.875ZM340.574 183.875V183.555H339.229L339.613 183.875V184.195L340.574 183.875ZM313.935 170.171L315.152 169.851V169.531L314.832 169.147V169.083C314.533 169.467 314.234 169.83 313.935 170.171ZM313.359 179.264L315.985 181.506L316.305 179.264V178.944L313.359 179.264ZM315.728 163.832V163.896L315.472 163.64V163.96C315.472 164.302 315.899 164.622 316.753 164.921V163.832L317.649 163.192H317.009L316.305 163.512V163.192H315.344V163.512L315.985 163.704L315.728 163.832ZM317.521 153.779C317.948 152.37 318.61 151.495 319.506 151.153L320.467 148.208H319.506C319.506 149.702 318.738 150.897 317.201 151.794L316.881 152.178V153.138L317.521 153.779ZM311.95 160.502H314.896L315.92 159.862C315.622 158.538 315.28 157.877 314.896 157.877H314.576L314.896 159.542L313.935 160.182H313.615L311.95 159.862V160.502ZM318.226 156.276H317.842L316.561 155.315V157.236H317.201L318.226 156.276ZM314.512 146.158L314.896 146.479H315.856L314.896 145.518L314.512 145.838V146.158ZM320.147 145.326C321.001 145.326 321.427 145.539 321.427 145.966L321.748 145.646H322.068L323.092 146.287H323.413V144.942H320.147V145.326ZM352.164 195.849C352.207 195.849 352.228 195.828 352.228 195.785H352.164V195.849ZM354.277 190.727L354.597 190.406V187.461H353.957C353.957 188.101 353.509 188.656 352.612 189.126C352.612 190.278 353.167 190.919 354.277 191.047V190.727ZM352.164 195.849V196.105C352.164 197.429 352.591 198.091 353.445 198.091V199.051H350.819L350.179 198.411V196.426L350.371 196.105L350.691 196.618H351.011C351.396 196.276 351.78 196.02 352.164 195.849ZM339.101 130.982L338.653 134.184H339.293L339.613 132.199H339.933C340.659 132.199 341.428 132.519 342.239 133.159H342.559V132.519C342.559 132.092 342.111 131.879 341.214 131.879L341.086 130.982H346.209L347.233 132.199V170.748L346.913 171.452L347.233 171.772L345.312 172.413V172.733H345.953C345.953 173.587 346.38 174.014 347.233 174.014V190.342L346.785 190.406L346.465 188.806H346.145V190.727C345.718 190.727 345.504 191.153 345.504 192.007L345.12 192.391H344.8L343.519 192.007V192.391C343.519 192.818 344.181 193.245 345.504 193.672L345.825 195.273V195.657H345.12V195.977C345.803 195.977 346.145 196.191 346.145 196.618H346.785L347.105 194.633L346.145 193.672V193.032L347.233 192.84V221.527H347.041V222.168H345.504C345.163 222.466 344.096 222.744 342.303 223H341.726L341.47 222.744V223H341.022C340.809 222.915 340.574 222.872 340.318 222.872L340.19 223H339.805L339.677 222.872V222.552C339.677 221.015 340.446 220.14 341.983 219.926L342.303 219.606V218.966H340.318C339.976 218.966 339.443 219.841 338.717 221.591H338.076L337.052 220.951V221.911L338.397 222.232L338.205 223H327.127L326.358 222.36V213.587L326.486 213.459V211.282L327.127 210.641H327.383L328.343 210.961V208.784H326.358V207.568L326.486 206.927H326.806L328.343 207.247C328.343 206.394 328.557 205.967 328.984 205.967C328.813 205.284 328.194 204.665 327.127 204.11L327.703 205.647L326.486 206.287L326.358 206.159V194.569C326.486 194.355 326.614 194.142 326.742 193.928V192.904C326.614 192.946 326.486 192.989 326.358 193.032V181.249C326.401 181.079 326.422 180.844 326.422 180.545L327.383 181.185V180.865L327.063 180.545V180.225L327.383 179.264H327.063C326.806 179.392 326.572 179.499 326.358 179.585V176.895L327.703 176.639V175.678C327.063 175.038 326.742 174.27 326.742 173.373L326.358 173.757V143.981L326.614 143.917L327.255 145.838H326.934L327.255 147.503H327.575L327.895 147.183H328.215L327.575 143.917H328.215V143.277H326.358V136.361L326.614 136.105H326.934L327.255 136.425L327.575 136.105H327.895L329.496 136.425V135.785L326.934 135.465L327.255 135.08V134.44H326.934C326.934 134.696 326.742 134.867 326.358 134.952V132.007L327.255 130.982H339.101Z" fill="#E13229"/>
</svg>
